<svg width="78" height="68" viewBox="0 0 78 68" fill="none" xmlns="http://www.w3.org/2000/svg">
<rect x="0.465454" y="3.78033" width="76.6881" height="63.3323" rx="12.0633" fill="#C4C4C4"/>
<g clip-path="url(#clip0)">
<path d="M43.1243 39.8002C42.3134 39.8002 41.6098 39.2626 41.5047 38.5265C41.391 37.7277 42.0244 36.998 42.9196 36.8963C48.0846 36.3093 52.7099 35.0611 55.9432 33.3807C58.9003 31.8443 60.5285 30.038 60.5285 28.2946C60.5285 26.3732 58.6232 24.8011 57.0244 23.8201C56.2808 23.3638 56.0926 22.4564 56.6043 21.7928C57.1159 21.1295 58.1337 20.9617 58.8773 21.4181C62.0962 23.393 63.7976 25.7707 63.7976 28.295C63.7976 31.1598 61.651 33.7896 57.5893 35.9001C53.9332 37.7998 49.0036 39.1445 43.3329 39.7888C43.2627 39.7964 43.1929 39.8002 43.1243 39.8002Z" fill="#636363"/>
<path d="M35.5029 37.7118L31.1441 33.8242C30.5056 33.2547 29.4708 33.2547 28.8323 33.8242C28.1942 34.3933 28.1942 35.3166 28.8323 35.8856L30.1059 37.0216C25.2226 36.5717 20.7864 35.5576 17.3512 34.0842C13.4892 32.4278 11.274 30.3174 11.274 28.2946C11.274 26.579 12.86 24.7958 15.7397 23.2734C16.5165 22.863 16.7728 21.9686 16.3126 21.2761C15.852 20.5832 14.8492 20.3547 14.0728 20.7651C9.05758 23.4165 8.00491 26.3231 8.00491 28.2946C8.00491 31.5292 10.8211 34.5185 15.9346 36.7121C19.9035 38.4141 25.0375 39.5542 30.6307 39.9953L28.8323 41.5993C28.1942 42.1684 28.1942 43.0917 28.8323 43.6612C29.1515 43.9456 29.5699 44.0879 29.9884 44.0879C30.4064 44.0879 30.8248 43.9456 31.1441 43.6612L35.5029 39.7736C36.1409 39.2041 36.1409 38.2808 35.5029 37.7118Z" fill="#636363"/>
<path d="M25.1239 25.3751V25.0244C25.1239 23.7871 24.2747 23.5471 23.136 23.5471C22.432 23.5471 22.2042 22.9932 22.2042 22.4393C22.2042 21.885 22.432 21.3311 23.136 21.3311C23.9226 21.3311 24.751 21.2389 24.751 19.7431C24.751 18.6721 24.0678 18.4136 23.2186 18.4136C22.2042 18.4136 21.6866 18.6353 21.6866 19.3555C21.6866 19.983 21.3759 20.4078 20.1751 20.4078C18.6844 20.4078 18.4984 20.1307 18.4984 19.2442C18.4984 17.8042 19.6575 15.939 23.2186 15.939C25.8483 15.939 27.8358 16.7883 27.8358 19.2814C27.8358 20.6292 27.2769 21.885 26.2417 22.3099C27.4633 22.7161 28.3534 23.5285 28.3534 25.0244V25.3751C28.3534 28.4036 26.0139 29.5486 23.1151 29.5486C19.554 29.5486 18.1877 27.6097 18.1877 26.0585C18.1877 25.2275 18.581 25.0057 19.7196 25.0057C21.0447 25.0057 21.3759 25.2643 21.3759 25.9663C21.3759 26.8341 22.2872 27.0372 23.2186 27.0372C24.6267 27.0372 25.1239 26.5756 25.1239 25.3751Z" fill="#636363"/>
<path d="M40.9211 25.0244V25.1906C40.9211 28.3668 38.7055 29.5486 35.8485 29.5486C32.9914 29.5486 30.7549 28.3668 30.7549 25.1906V20.297C30.7549 17.1209 33.0531 15.939 36.0349 15.939C39.5339 15.939 40.9211 17.8779 40.9211 19.4105C40.9211 20.297 40.4448 20.5737 39.4096 20.5737C38.5195 20.5737 37.7325 20.3706 37.7325 19.5214C37.7325 18.8198 36.9045 18.4504 35.9315 18.4504C34.7098 18.4504 33.9849 19.0229 33.9849 20.297V21.9587C34.6477 21.3125 35.5794 21.1463 36.5734 21.1463C38.9333 21.1463 40.9211 22.0696 40.9211 25.0244ZM33.9849 25.3937C33.9849 26.6678 34.6889 27.2217 35.8485 27.2217C37.008 27.2217 37.6912 26.6678 37.6912 25.3937V25.2275C37.6912 23.8793 37.008 23.3623 35.8276 23.3623C34.7098 23.3623 33.9849 23.8425 33.9849 25.0612V25.3937Z" fill="#636363"/>
<path d="M43.4261 25.1906V20.297C43.4261 17.1209 45.6413 15.939 48.4988 15.939C51.3558 15.939 53.5918 17.1209 53.5918 20.297V25.1906C53.5918 28.3668 51.3558 29.5486 48.4988 29.5486C45.6413 29.5486 43.4261 28.3668 43.4261 25.1906ZM50.3619 20.297C50.3619 19.0229 49.6583 18.4504 48.4988 18.4504C47.3393 18.4504 46.6561 19.0229 46.6561 20.297V25.1906C46.6561 26.4647 47.3393 27.0372 48.4988 27.0372C49.6583 27.0372 50.3619 26.4647 50.3619 25.1906V20.297Z" fill="#636363"/>
<path d="M57.5156 15.9261C54.8113 15.9261 52.6119 13.9641 52.6119 11.5526C52.6119 9.14106 54.8113 7.17905 57.5156 7.17905C60.2194 7.17905 62.4193 9.14106 62.4193 11.5526C62.4193 13.9641 60.2194 15.9261 57.5156 15.9261ZM57.5156 10.0947C56.614 10.0947 55.881 10.7489 55.881 11.5526C55.881 12.3567 56.614 13.0104 57.5156 13.0104C58.4167 13.0104 59.1502 12.3567 59.1502 11.5526C59.1502 10.7489 58.4167 10.0947 57.5156 10.0947Z" fill="#636363"/>
</g>
<path d="M30.5633 50.9687L26.7031 61.494H24.1396L20.2793 50.9687H22.5412L25.4364 59.3376L28.3165 50.9687H30.5633ZM32.8996 52.1449C32.5277 52.1449 32.216 52.0293 31.9647 51.7981C31.7235 51.5568 31.6028 51.2603 31.6028 50.9084C31.6028 50.5566 31.7235 50.265 31.9647 50.0338C32.216 49.7926 32.5277 49.6719 32.8996 49.6719C33.2716 49.6719 33.5782 49.7926 33.8195 50.0338C34.0708 50.265 34.1964 50.5566 34.1964 50.9084C34.1964 51.2603 34.0708 51.5568 33.8195 51.7981C33.5782 52.0293 33.2716 52.1449 32.8996 52.1449ZM33.9401 53.1401V61.494H31.829V53.1401H33.9401ZM43.7916 57.1361C43.7916 57.4377 43.7715 57.7091 43.7313 57.9504H37.6242C37.6745 58.5535 37.8856 59.026 38.2575 59.3678C38.6295 59.7096 39.0869 59.8805 39.6297 59.8805C40.4139 59.8805 40.9718 59.5437 41.3035 58.8702H43.5805C43.3392 59.6744 42.8768 60.3379 42.1932 60.8606C41.5096 61.3733 40.6702 61.6297 39.675 61.6297C38.8708 61.6297 38.147 61.4537 37.5036 61.1019C36.8703 60.74 36.3727 60.2323 36.0108 59.5789C35.6589 58.9255 35.483 58.1715 35.483 57.317C35.483 56.4525 35.6589 55.6935 36.0108 55.0401C36.3626 54.3867 36.8552 53.884 37.4885 53.5322C38.1218 53.1803 38.8507 53.0044 39.675 53.0044C40.4691 53.0044 41.1779 53.1753 41.8011 53.5171C42.4345 53.8589 42.922 54.3465 43.2638 54.9798C43.6157 55.603 43.7916 56.3218 43.7916 57.1361ZM41.6051 56.5329C41.5951 55.9901 41.399 55.5578 41.017 55.2361C40.635 54.9044 40.1676 54.7385 39.6147 54.7385C39.0919 54.7385 38.6496 54.8994 38.2877 55.221C37.9359 55.5327 37.7197 55.97 37.6393 56.5329H41.6051ZM56.9132 53.1401L54.4704 61.494H52.1935L50.6705 55.6583L49.1475 61.494H46.8555L44.3976 53.1401H46.5388L48.0166 59.5035L49.6149 53.1401H51.8467L53.4149 59.4884L54.8926 53.1401H56.9132Z" fill="#636363"/>
<defs>
<clipPath id="clip0">
<rect width="55.7927" height="49.7611" fill="white" transform="translate(8.00488 0.764465)"/>
</clipPath>
</defs>
</svg>
