<svg width="78" height="65" viewBox="0 0 78 65" fill="none" xmlns="http://www.w3.org/2000/svg">
<rect x="0.3255" y="0.780334" width="76.6881" height="63.3323" rx="12.0633" fill="#C4C4C4"/>
<path d="M12.3665 47.9637V50.6025H15.9101V52.2763H12.3665V55.066H16.3625V56.785H10.2554V46.2447H16.3625V47.9637H12.3665ZM22.8951 56.785L21.1761 54.1914L19.6531 56.785H17.3913L20.1206 52.593L17.3611 48.4311H19.7436L21.4475 51.0097L22.9856 48.4311H25.2475L22.5031 52.593L25.2776 56.785H22.8951ZM28.8821 50.1652V54.2064C28.8821 54.4879 28.9475 54.694 29.0782 54.8247C29.2189 54.9453 29.4501 55.0056 29.7718 55.0056H30.752V56.785H29.425C27.6457 56.785 26.756 55.9204 26.756 54.1914V50.1652H25.7608V48.4311H26.756V46.3653H28.8821V48.4311H30.752V50.1652H28.8821ZM34.3814 49.7279C34.6529 49.2856 35.0047 48.9388 35.437 48.6875C35.8793 48.4362 36.3819 48.3105 36.9449 48.3105V50.5271H36.3869C35.7235 50.5271 35.2208 50.683 34.879 50.9946C34.5473 51.3062 34.3814 51.8491 34.3814 52.6231V56.785H32.2704V48.4311H34.3814V49.7279ZM37.8239 52.5779C37.8239 51.7335 37.9898 50.9845 38.3216 50.3311C38.6633 49.6777 39.1207 49.175 39.6938 48.8232C40.2768 48.4714 40.9252 48.2954 41.639 48.2954C42.2622 48.2954 42.8051 48.4211 43.2675 48.6724C43.74 48.9237 44.117 49.2404 44.3984 49.6224V48.4311H46.5246V56.785H44.3984V55.5636C44.127 55.9556 43.75 56.2823 43.2675 56.5437C42.795 56.795 42.2472 56.9207 41.6239 56.9207C40.9202 56.9207 40.2768 56.7397 39.6938 56.3778C39.1207 56.0159 38.6633 55.5083 38.3216 54.8548C37.9898 54.1914 37.8239 53.4324 37.8239 52.5779ZM44.3984 52.6081C44.3984 52.0954 44.2979 51.6581 44.0969 51.2962C43.8958 50.9242 43.6244 50.6427 43.2826 50.4517C42.9408 50.2507 42.5739 50.1502 42.1818 50.1502C41.7898 50.1502 41.4279 50.2457 41.0961 50.4367C40.7644 50.6277 40.4929 50.9091 40.2818 51.2811C40.0808 51.643 39.9803 52.0753 39.9803 52.5779C39.9803 53.0805 40.0808 53.5229 40.2818 53.9049C40.4929 54.2768 40.7644 54.5633 41.0961 54.7644C41.4379 54.9654 41.7998 55.066 42.1818 55.066C42.5739 55.066 42.9408 54.9705 43.2826 54.7795C43.6244 54.5784 43.8958 54.2969 44.0969 53.935C44.2979 53.5631 44.3984 53.1207 44.3984 52.6081ZM48.0436 52.6081C48.0436 51.7435 48.2195 50.9896 48.5714 50.3462C48.9232 49.6928 49.4108 49.1901 50.034 48.8383C50.6573 48.4764 51.371 48.2954 52.1753 48.2954C53.2107 48.2954 54.0652 48.5568 54.7387 49.0795C55.4223 49.5922 55.8797 50.316 56.1109 51.2509H53.834C53.7133 50.889 53.5072 50.6076 53.2157 50.4065C52.9342 50.1954 52.5824 50.0898 52.1602 50.0898C51.557 50.0898 51.0795 50.311 50.7277 50.7533C50.3758 51.1856 50.1999 51.8038 50.1999 52.6081C50.1999 53.4022 50.3758 54.0205 50.7277 54.4628C51.0795 54.8951 51.557 55.1112 52.1602 55.1112C53.0147 55.1112 53.5726 54.7292 53.834 53.9652H56.1109C55.8797 54.8699 55.4223 55.5887 54.7387 56.1215C54.0551 56.6543 53.2006 56.9207 52.1753 56.9207C51.371 56.9207 50.6573 56.7448 50.034 56.3929C49.4108 56.031 48.9232 55.5284 48.5714 54.885C48.2195 54.2316 48.0436 53.4726 48.0436 52.6081ZM60.1154 50.1652V54.2064C60.1154 54.4879 60.1807 54.694 60.3114 54.8247C60.4521 54.9453 60.6833 55.0056 61.005 55.0056H61.9852V56.785H60.6582C58.8789 56.785 57.9892 55.9204 57.9892 54.1914V50.1652H56.994V48.4311H57.9892V46.3653H60.1154V48.4311H61.9852V50.1652H60.1154ZM66.7003 56.9207C66.0168 56.9207 65.4035 56.8001 64.8607 56.5588C64.3178 56.3075 63.8856 55.9707 63.5639 55.5485C63.2522 55.1263 63.0814 54.6588 63.0512 54.1461H65.1773C65.2176 54.4678 65.3734 54.7342 65.6448 54.9453C65.9263 55.1564 66.2731 55.262 66.6853 55.262C67.0874 55.262 67.399 55.1816 67.6202 55.0207C67.8514 54.8599 67.967 54.6538 67.967 54.4025C67.967 54.131 67.8262 53.93 67.5448 53.7993C67.2733 53.6586 66.8361 53.5078 66.2329 53.3469C65.6096 53.1961 65.0969 53.0403 64.6948 52.8795C64.3028 52.7186 63.961 52.4723 63.6694 52.1406C63.388 51.8089 63.2472 51.3615 63.2472 50.7986C63.2472 50.3361 63.3779 49.9139 63.6393 49.5319C63.9107 49.1499 64.2927 48.8483 64.7853 48.6272C65.2879 48.406 65.876 48.2954 66.5495 48.2954C67.5448 48.2954 68.3389 48.5467 68.9321 49.0494C69.5252 49.542 69.8519 50.2105 69.9122 51.0549H67.8916C67.8614 50.7232 67.7207 50.4618 67.4694 50.2708C67.2281 50.0697 66.9014 49.9692 66.4892 49.9692C66.1072 49.9692 65.8107 50.0396 65.5996 50.1803C65.3985 50.3211 65.298 50.5171 65.298 50.7684C65.298 51.0499 65.4387 51.266 65.7202 51.4168C66.0017 51.5575 66.439 51.7033 67.0321 51.8541C67.6352 52.0049 68.1329 52.1607 68.5249 52.3216C68.917 52.4824 69.2537 52.7337 69.5352 53.0755C69.8267 53.4073 69.9775 53.8496 69.9876 54.4025C69.9876 54.885 69.8519 55.3173 69.5805 55.6993C69.3191 56.0813 68.9371 56.3829 68.4344 56.604C67.9419 56.8151 67.3638 56.9207 66.7003 56.9207Z" fill="#636363"/>
<g clip-path="url(#clip0)">
<path d="M31.3311 28.174H29.6724C29.2144 28.174 28.843 28.4216 28.843 28.7269C28.843 29.0323 29.2144 29.2798 29.6724 29.2798H31.3311C31.7891 29.2798 32.1604 29.0323 32.1604 28.7269C32.1604 28.4216 31.7891 28.174 31.3311 28.174Z" fill="#636363"/>
<path d="M54.5529 28.174H34.6485C34.1905 28.174 33.8191 28.4216 33.8191 28.7269C33.8191 29.0323 34.1905 29.2798 34.6485 29.2798H54.5529C55.0109 29.2798 55.3823 29.0323 55.3823 28.7269C55.3823 28.4216 55.0109 28.174 54.5529 28.174Z" fill="#636363"/>
<path d="M31.3311 24.8566H29.6724C29.2144 24.8566 28.843 25.1042 28.843 25.4095C28.843 25.7149 29.2144 25.9624 29.6724 25.9624H31.3311C31.7891 25.9624 32.1604 25.7149 32.1604 25.4095C32.1604 25.1042 31.7891 24.8566 31.3311 24.8566Z" fill="#636363"/>
<path d="M54.5529 24.8566H34.6485C34.1905 24.8566 33.8191 25.1042 33.8191 25.4095C33.8191 25.7149 34.1905 25.9624 34.6485 25.9624H54.5529C55.0109 25.9624 55.3823 25.7149 55.3823 25.4095C55.3823 25.1042 55.0109 24.8566 54.5529 24.8566Z" fill="#636363"/>
<path d="M31.3311 21.5392H29.6724C29.2144 21.5392 28.843 21.7868 28.843 22.0921C28.843 22.3975 29.2144 22.645 29.6724 22.645H31.3311C31.7891 22.645 32.1604 22.3975 32.1604 22.0921C32.1604 21.7868 31.7891 21.5392 31.3311 21.5392Z" fill="#636363"/>
<path d="M54.5529 21.5392H34.6485C34.1905 21.5392 33.8191 21.7868 33.8191 22.0921C33.8191 22.3975 34.1905 22.645 34.6485 22.645H54.5529C55.0109 22.645 55.3823 22.3975 55.3823 22.0921C55.3823 21.7868 55.0109 21.5392 54.5529 21.5392Z" fill="#636363"/>
<path d="M31.3311 18.2218H29.6724C29.2144 18.2218 28.843 18.4694 28.843 18.7747C28.843 19.0801 29.2144 19.3276 29.6724 19.3276H31.3311C31.7891 19.3276 32.1604 19.0801 32.1604 18.7747C32.1604 18.4694 31.7891 18.2218 31.3311 18.2218Z" fill="#636363"/>
<path d="M54.5529 18.2218H34.6485C34.1905 18.2218 33.8191 18.4694 33.8191 18.7747C33.8191 19.0801 34.1905 19.3276 34.6485 19.3276H54.5529C55.0109 19.3276 55.3823 19.0801 55.3823 18.7747C55.3823 18.4694 55.0109 18.2218 54.5529 18.2218Z" fill="#636363"/>
<path d="M31.3311 14.9044H29.6724C29.2144 14.9044 28.843 15.152 28.843 15.4573C28.843 15.7627 29.2144 16.0102 29.6724 16.0102H31.3311C31.7891 16.0102 32.1604 15.7627 32.1604 15.4573C32.1604 15.152 31.7891 14.9044 31.3311 14.9044Z" fill="#636363"/>
<path d="M54.5529 14.9044H34.6485C34.1905 14.9044 33.8191 15.152 33.8191 15.4573C33.8191 15.7627 34.1905 16.0102 34.6485 16.0102H54.5529C55.0109 16.0102 55.3823 15.7627 55.3823 15.4573C55.3823 15.152 55.0109 14.9044 54.5529 14.9044Z" fill="#636363"/>
<path d="M60.3476 12.658C60.3435 12.6095 60.3293 12.5617 60.3053 12.5159C60.2962 12.4982 60.2896 12.481 60.278 12.4639C60.2376 12.4038 60.1814 12.3489 60.1121 12.3019L48.5012 4.56129C48.4307 4.51506 48.3484 4.4776 48.2582 4.45071C48.2325 4.44297 48.2068 4.43855 48.181 4.43247C48.1117 4.41657 48.0394 4.40689 47.9662 4.40372C47.9521 4.40537 47.9364 4.39929 47.9181 4.39929H24.6963C24.2383 4.39929 23.8669 4.64685 23.8669 4.95219V6.6109H19.7202C19.2622 6.6109 18.8908 6.85846 18.8908 7.1638V37.0205C18.8908 37.3258 19.2622 37.5734 19.7202 37.5734H54.553C55.011 37.5734 55.3823 37.3258 55.3823 37.0205V34.2559H59.5291C59.9871 34.2559 60.3584 34.0084 60.3584 33.703V12.6928C60.3584 12.6806 60.3493 12.6701 60.3476 12.658ZM48.7475 6.2869L57.527 12.1399H48.7475V6.2869ZM53.7236 36.4676H20.5495V7.7167H23.8669V33.703C23.8669 34.0084 24.2383 34.2559 24.6963 34.2559H53.7236V36.4676ZM58.6997 33.1501H25.5257V5.50509H47.0888V12.6928C47.0888 12.9981 47.4601 13.2457 47.9181 13.2457H58.6997V33.1501Z" fill="#636363"/>
<path d="M34.6485 9.37543H29.6724C29.2144 9.37543 28.843 9.62299 28.843 9.92833V13.2457C28.843 13.5511 29.2144 13.7986 29.6724 13.7986H34.6485C35.1065 13.7986 35.4778 13.5511 35.4778 13.2457V9.92833C35.4778 9.62299 35.1065 9.37543 34.6485 9.37543ZM33.8191 12.6928H30.5017V10.4812H33.8191V12.6928Z" fill="#636363"/>
</g>
<defs>
<clipPath id="clip0">
<rect width="49.7611" height="33.1741" fill="white" transform="translate(14.7441 4.39929)"/>
</clipPath>
</defs>
</svg>
