<svg width="4890" height="2883" viewBox="0 0 4890 2883" fill="none" xmlns="http://www.w3.org/2000/svg">
<g clip-path="url(#clip0)">
<path fill-rule="evenodd" clip-rule="evenodd" d="M4843.78 596.208C4872.47 819.643 4886.8 982.295 4886.8 1084.12C4886.8 1143.4 4868.48 1219.02 4831.82 1310.97C4790.37 1414.32 4768.34 1474.38 4765.68 1491.09C4743.36 1633.2 4700.87 1717.92 4638.17 1745.28C4614.26 1755.93 4562.73 1770.75 4483.56 1789.74C4400.15 1809.48 4318.87 1835.34 4239.7 1867.26C4164.26 1898.4 4106.61 1939.05 4066.76 1989.24C4009.37 2062.95 3962.62 2113.88 3926.49 2141.99C3878.67 2179.98 3815.46 2238.89 3736.83 2318.69C3673.6 2383.28 3623.13 2426.23 3585.41 2447.48C3551.4 2467.25 3453.12 2483.21 3290.55 2495.39C3130.11 2506.78 3031.54 2524.64 2994.89 2548.96C2955.04 2575.57 2900.85 2623.81 2832.31 2693.76C2753.14 2772.79 2700.54 2822.95 2674.52 2844.24C2629.36 2881.5 2580.49 2891.73 2527.88 2875.02C2492.29 2863.62 2441.56 2833.23 2375.67 2783.82C2345.38 2760.27 2301.82 2728.74 2244.97 2689.23C2201.93 2659.59 2167.39 2633.37 2141.37 2610.57C2099.4 2574.86 2057.69 2549.01 2016.25 2533.05C1962.58 2512.55 1899.89 2504.55 1828.17 2509.11C1744.76 2514.42 1675.16 2513.31 1619.37 2505.71C1555.62 2496.59 1494.78 2477.21 1436.87 2447.55C1364.1 2411.07 1279.61 2358.27 1183.45 2289.12C1069.22 2206.26 982.892 2130.27 924.445 2061.12C873.441 2000.32 806.498 1957.75 723.617 1933.42C649.231 1920.52 607.264 1908.73 597.701 1898.08C519.601 1814.48 450.794 1743.43 391.294 1684.91C342.952 1637.01 298.595 1578.89 258.206 1510.49C254.492 1505.18 227.652 1454.63 177.715 1358.87C161.251 1327.71 140.259 1278.69 114.758 1211.82C82.8801 1128.99 63.4827 1079.58 56.5812 1063.62C42.2363 1030.17 33.215 928.351 29.4854 758.107C27.8915 673.749 27.6205 592.423 28.6884 514.152L884.598 493.632C1478.59 483.76 1833.48 487.18 1949.3 503.892C2065.13 521.379 2582.34 541.899 3500.96 565.451C3959.99 577.626 4407.55 587.886 4843.79 596.253L4843.78 596.208Z" fill="#633B21"/>
<path fill-rule="evenodd" clip-rule="evenodd" d="M269.364 1365.69C273.077 1371 286.896 1387.35 310.804 1414.71C329.405 1436.76 342.953 1456.14 351.448 1472.85C366.335 1500.96 396.347 1557.96 441.502 1643.85C461.154 1679.57 486.13 1708.07 516.414 1729.34C441.502 1686.8 379.07 1644.23 329.134 1601.67C296.73 1573.55 266.702 1534.77 239.08 1485.39C226.855 1464.09 206.406 1421.91 177.716 1358.85C162.845 1326.16 151.146 1288.93 142.651 1247.13C138.395 1226.61 135.733 1209.13 134.681 1194.69L164.168 1193.55C185.414 1198.87 200.572 1217.11 209.593 1248.27C219.157 1280.95 229.246 1306.02 239.877 1323.51C245.727 1334.16 255.545 1348.2 269.364 1365.69Z" fill="#6E431E"/>
<path fill-rule="evenodd" clip-rule="evenodd" d="M537.133 1293.87C552.004 1315.14 562.364 1339.08 568.214 1365.69C573.521 1388.49 575.657 1409.4 574.589 1428.39C573.537 1458.03 574.063 1486.92 576.183 1515.03C579.371 1555.31 586.543 1597.86 597.7 1642.7L613.639 1697.42C605.144 1697.42 596.107 1695.51 586.543 1691.72C567.943 1684.88 557.057 1672.71 553.869 1655.22C550.681 1638.51 541.644 1619.13 526.773 1597.08C496.49 1552.99 477.905 1525.65 470.988 1515C450.267 1480.05 438.584 1458.76 435.922 1451.17C434.329 1447.36 433.532 1436.73 433.532 1419.25C433.532 1397.2 418.645 1358.05 388.903 1301.83C369.777 1264.6 412.285 1253.95 516.413 1269.91L537.133 1293.87Z" fill="#6E431E"/>
<path fill-rule="evenodd" clip-rule="evenodd" d="M852.723 1365.69L894.163 1369.11C923.921 1371.39 945.167 1370.25 957.918 1365.69C971.195 1361.13 979.706 1364.94 983.42 1377.09C986.082 1383.93 987.405 1398 987.405 1419.27C987.405 1435.23 994.832 1450.44 1009.72 1464.87C1024.59 1479.32 1032.03 1478.55 1032.03 1462.59C1032.03 1440.54 1037.07 1415.46 1047.17 1387.35C1087.02 1494.51 1111.98 1565.94 1122.09 1601.67C1127.94 1622.19 1129.79 1644.98 1127.67 1670.06C1123.95 1714.91 1122.09 1745.3 1122.09 1761.26C1122.09 1793.96 1129 1828.16 1142.81 1863.86C1160.34 1909.46 1170.97 1943.27 1174.68 1965.32C1181.06 2001.02 1194.07 2049.31 1213.73 2110.1L1241.63 2189.89C1211.87 2154.19 1182.13 2107.82 1152.37 2050.82C1133.24 2015.11 1115.19 1975.97 1098.18 1933.4L1077.46 1879.82V1986.98C1077.46 2009 1082.5 2033.33 1092.6 2059.91C1097.38 2072.84 1102.16 2083.88 1106.95 2092.97C1052.21 2050.43 1007.33 2007.86 972.263 1965.3L949.949 1937.96C957.376 1949.36 957.376 1951.25 949.949 1943.66C939.86 1933.76 926.041 1888.16 908.508 1806.86C891.517 1730.12 883.006 1679.57 883.006 1655.24C883.006 1639.31 872.375 1613.07 851.129 1576.61C811.824 1510.49 782.337 1458.05 762.669 1419.29C733.979 1361.54 732.385 1336.83 757.887 1345.19C811.553 1362.66 843.159 1369.48 852.723 1365.69Z" fill="#6E431E"/>
<path fill-rule="evenodd" clip-rule="evenodd" d="M1376.31 1526.43L1436.08 1515.03V1601.67C1436.08 1637.37 1440.06 1674.63 1448.03 1713.38L1459.19 1761.26C1451.76 1755.95 1444.32 1748.72 1436.87 1739.6C1421.48 1722.12 1413.76 1704.65 1413.76 1687.16C1413.76 1664.37 1410.31 1649.91 1403.4 1643.85C1395.98 1637.76 1386.94 1645.01 1376.31 1665.51C1365.68 1685.27 1364.88 1717.19 1373.92 1761.26C1381.34 1799.27 1397.28 1852.85 1421.73 1922C1441.39 1979 1448.83 2029.55 1444.05 2073.62C1439.27 2116.16 1431.82 2126.42 1421.73 2104.4C1408.98 2077.81 1396.23 2042.08 1383.48 1997.24C1365.42 1937.21 1357.98 1890.86 1361.17 1858.16C1364.35 1827.02 1363.83 1799.66 1359.57 1776.08C1357.45 1763.16 1353.2 1744.16 1346.82 1719.08C1341.51 1690.2 1323.97 1622.19 1294.22 1515.03L1315.74 1512.73C1334.34 1512.75 1354.52 1517.31 1376.31 1526.43Z" fill="#6E431E"/>
<path fill-rule="evenodd" clip-rule="evenodd" d="M1735.72 1451.19L1795.49 1601.67V1419.27L1821 1448.91C1842.24 1470.2 1863.78 1485.41 1885.55 1494.51C1907.34 1502.88 1915.04 1526.82 1908.66 1566.33L1892.72 1622.19V1794.32C1892.72 1820.91 1890.33 1862.72 1885.55 1919.72L1877.58 1997.22C1837.73 1968.33 1810.38 1947.08 1795.49 1933.38C1786.47 1924.28 1773.71 1889.28 1757.24 1828.5C1749.27 1798.86 1742.1 1769.59 1735.72 1740.7C1725.64 1661.68 1710.76 1604.29 1691.1 1568.56C1678.35 1546.51 1682.06 1520.32 1702.25 1489.9C1712.29 1474.76 1723.45 1461.81 1735.72 1451.19Z" fill="#6E431E"/>
<path fill-rule="evenodd" clip-rule="evenodd" d="M1630.53 2168.23L1691.1 2165.96C1730.94 2169.01 1750.87 2184.19 1750.87 2211.55C1750.87 2237.41 1743.95 2256.4 1730.15 2268.55C1708.9 2284.51 1690.84 2301.25 1675.95 2318.71C1656.3 2341.51 1637.97 2350.24 1620.97 2344.91C1595.46 2330.48 1571.28 2317.94 1548.44 2307.31C1522.42 2295.16 1522.15 2277.31 1547.65 2253.71C1594.35 2211.17 1622.08 2182.67 1630.53 2168.23Z" fill="#6E431E"/>
<path fill-rule="evenodd" clip-rule="evenodd" d="M2064.86 1665.5C2052.11 1629.8 2067 1611.93 2109.49 1611.93C2134.45 1611.93 2179.35 1615.32 2244.17 1622.19L2289.6 1814.82C2294.38 1836.87 2297.3 1843.71 2298.36 1835.34C2302.62 1811.03 2309.52 1793.55 2319.08 1782.9V1826.24C2319.08 1837.64 2318.03 1861.97 2315.9 1899.2C2313.24 1936.45 2311.91 1969.1 2311.91 1997.24C2311.91 2036.75 2314.05 2066.41 2318.29 2086.16C2323.6 2109.71 2338.74 2154.94 2363.71 2221.81C2385.5 2279.56 2387.1 2297.05 2368.49 2274.25L2334.23 2221.81C2284.27 2122.25 2251.87 2054.6 2237 2018.9C2228.49 1999.15 2227.96 2007.5 2235.41 2044C2250.82 2125.3 2261.18 2184.58 2266.49 2221.84C2276.05 2284.92 2297.57 2346.48 2331.04 2406.51C2348.03 2436.93 2363.97 2460.87 2378.85 2478.33L2274.46 2372.31C2255.86 2353.32 2238.32 2330.13 2221.86 2302.77C2209.11 2280.73 2199.27 2268.19 2192.37 2265.15C2181.74 2259.84 2166.07 2231.73 2145.35 2180.82C2126.23 2132.92 2114.27 2096.83 2109.49 2072.52C2105.23 2045.91 2110.29 1988.53 2124.63 1900.36C2129.89 1870.72 2109.97 1792.43 2064.86 1665.53V1665.5Z" fill="#6E431E"/>
<path fill-rule="evenodd" clip-rule="evenodd" d="M3120 1868.42C3125.84 1895.78 3143.91 1903.76 3174.2 1892.36C3189.07 1887.05 3203.41 1879.07 3217.21 1868.42L3237.95 1895.78C3254.94 1917.05 3273 1936.43 3292.13 1953.92C3338.89 1999.52 3371.29 2039.03 3389.37 2072.48C3411.67 2114.27 3381.67 2146.19 3299.32 2168.21C3286.56 2171.27 3263.45 2178.11 3229.98 2188.73C3217.76 2192.54 3198.38 2196.32 3171.81 2200.13C3144.18 2204.69 3118.41 2208.11 3094.5 2210.39L3067.41 2211.53L3062.62 2152.25C3058.91 2109.69 3055.45 2079.29 3052.26 2061.05C3050.13 2047.35 3042.45 2011.65 3029.15 1953.9C3015.88 1888.53 3006.04 1820.88 2999.67 1750.98L3104.86 1740.72C3104.86 1783.31 3109.96 1825.85 3120 1868.42Z" fill="#6E431E"/>
<path fill-rule="evenodd" clip-rule="evenodd" d="M3486.59 1601.67C3513.69 1572.03 3540.53 1585.71 3567.08 1642.71C3592.04 1696.67 3600.01 1739.99 3590.99 1772.66C3584.63 1794.71 3575.33 1806.86 3563.1 1809.14L3546.36 1804.61C3511.3 1768.88 3481.29 1736.59 3456.31 1707.71C3438.78 1687.94 3432.67 1671.59 3438 1658.69C3441.18 1651.07 3457.44 1632.06 3486.61 1601.67H3486.59Z" fill="#6E431E"/>
<path fill-rule="evenodd" clip-rule="evenodd" d="M4843.78 596.208C4872.47 819.643 4886.8 982.295 4886.8 1084.12C4886.8 1143.4 4868.48 1219.02 4831.82 1310.97C4790.37 1414.32 4768.34 1474.38 4765.68 1491.09C4743.36 1633.2 4700.87 1717.92 4638.17 1745.28C4614.26 1755.93 4562.73 1770.75 4483.56 1789.74C4400.16 1809.48 4318.87 1835.34 4239.7 1867.26C4164.26 1898.4 4106.61 1939.05 4066.77 1989.24C4009.37 2062.95 3962.62 2113.88 3926.49 2141.99C3878.67 2179.98 3815.46 2238.89 3736.83 2318.69C3673.61 2383.28 3623.13 2426.23 3585.42 2447.48C3551.4 2467.25 3453.12 2483.21 3290.55 2495.39C3130.11 2506.78 3031.55 2524.64 2994.89 2548.96C2955.04 2575.57 2900.85 2623.81 2832.31 2693.76C2753.14 2772.79 2700.55 2822.95 2674.52 2844.24C2633.62 2877.69 2590.31 2889.45 2544.63 2879.58C2509.04 2871.99 2464.67 2848.8 2411.53 2810.04C2435.44 2809.29 2471.3 2793.33 2519.12 2762.16C2545.16 2745.45 2580.75 2722.26 2625.91 2692.6C2648.76 2680.45 2672.4 2648.16 2696.83 2595.7C2730.3 2523.52 2753.94 2477.53 2767.76 2457.77C2793.26 2422.06 2810.25 2394.68 2818.75 2375.69C2825.12 2362.78 2838.15 2332.73 2857.8 2285.63C2877.45 2243.84 2888.08 2222.18 2889.68 2220.65C2892.34 2217.6 2899.25 2214.56 2910.4 2211.53C2922.62 2202.41 2927.4 2167.44 2924.74 2106.65C2923.69 2076.99 2921.28 2047.74 2917.57 2018.85L2999.65 1997.19L3007.62 2029.11C3009.22 2035.95 3007.35 2095.62 3002.03 2208.09C2997.25 2308.41 2999.11 2352.11 3007.62 2339.19C3019.85 2321.7 3043.21 2305.37 3077.74 2290.19C3115.46 2273.48 3151.85 2265.09 3186.93 2265.09C3217.2 2265.09 3247.75 2268.89 3278.58 2276.49C3296.11 2281.05 3322.94 2287.89 3359.07 2297.01C3387.76 2301.57 3427.34 2294.36 3477.81 2275.35C3526.68 2256.35 3556.98 2238.5 3568.66 2221.77C3576.09 2211.12 3596.29 2189.46 3629.23 2156.77C3661.64 2121.06 3683.97 2085.72 3696.17 2050.77C3707.86 2017.32 3702.28 1994.16 3679.42 1981.23C3648.09 1963.75 3631.08 1951.21 3628.44 1943.61C3622.06 1925.37 3618.86 1899.15 3618.86 1864.96C3619.38 1845.96 3620.19 1822.41 3621.25 1794.28C3621.25 1729.66 3623.62 1683.31 3628.42 1655.18C3632.13 1634.68 3626.81 1611.11 3612.48 1584.5C3598.66 1558.64 3584.05 1542.71 3568.65 1536.62C3555.88 1532.06 3539.69 1533.2 3520.02 1540.02C3497.72 1549.14 3481.51 1555.22 3471.41 1558.26C3459.18 1562.06 3448.55 1582.58 3439.53 1619.81C3427.3 1668.47 3420.4 1694.3 3418.81 1697.33C3412.43 1711.01 3386.93 1713.29 3342.3 1704.17L3276.95 1687.12C3263.15 1671.16 3246.94 1654.06 3228.34 1635.82C3191.16 1600.12 3159.8 1577.68 3134.32 1568.56C3110.94 1560.97 3086.5 1567.42 3060.98 1587.96C3014.22 1625.95 2983.95 1648.36 2970.13 1655.2C2937.73 1671.91 2920.2 1689.01 2917.54 1706.5C2914.35 1733.86 2911.96 1748.7 2910.36 1750.96C2886.46 1785.16 2841.57 1781.76 2775.7 1740.7C2749.65 1723.99 2749.65 1684.09 2775.7 1621C2807.03 1546.51 2821.9 1504.36 2820.33 1494.46C2817.14 1472.42 2806.51 1462.18 2788.45 1463.68C2762.4 1469.77 2740.63 1472.78 2723.08 1472.78H2506.32C2469.13 1472.78 2438.85 1470.5 2415.47 1465.94C2376.16 1458.35 2336.57 1442.75 2296.72 1419.2C2259 1396.4 2206.94 1395.65 2140.52 1416.92C2117.16 1423.76 2081.82 1438.97 2034.53 1462.52C2030.28 1464.8 2015.68 1480.76 1990.7 1510.4C1967.33 1538.51 1947.14 1554.49 1930.13 1558.28C1911.53 1562.84 1900.92 1562.47 1898.25 1557.14L1899.85 1548.04L1885.5 1494.44C1865.31 1437.44 1845.39 1391.09 1825.73 1355.36C1813.51 1334.07 1790.14 1324.97 1755.6 1328C1713.64 1332.56 1692.12 1334.46 1691.05 1333.7C1679.89 1328.39 1660.77 1323.44 1633.67 1318.88C1607.1 1314.32 1586.13 1312.04 1570.71 1312.04C1558.49 1312.04 1539.9 1322.69 1514.93 1343.96L1481.46 1375.88C1446.39 1404.77 1416.38 1426.41 1391.4 1440.86C1376.53 1449.98 1361.66 1443.89 1346.78 1422.62C1329.24 1392.23 1314.1 1369.82 1301.35 1355.36C1288.07 1340.16 1265.76 1328 1234.41 1318.88C1200.39 1309.76 1177.82 1300.26 1166.67 1290.38C1151.25 1277.46 1129.21 1268.34 1100.52 1263.03L1062.27 1258.47L980.184 1236.81C972.741 1249.71 962.652 1262.27 949.901 1274.42C924.925 1299.5 899.965 1312.04 874.989 1312.04C850.029 1312.04 831.428 1301.42 819.203 1280.12L808.046 1248.21C787.852 1269.48 760.501 1294.56 725.962 1323.44C705.767 1339.4 700.731 1358.03 710.82 1379.3C720.909 1400.57 723.3 1413.89 717.992 1419.2C709.497 1427.57 706.309 1443.14 708.429 1465.94C711.617 1499.39 712.414 1522.94 710.82 1536.64C707.632 1558.67 695.407 1570.84 674.161 1573.12L643.08 1568.56V1483.06L631.126 1443.16C622.615 1407.46 616.782 1367.56 613.594 1323.47C610.932 1287.76 608.015 1271.42 604.827 1274.45C595.79 1282.04 583.581 1273.31 568.168 1248.23C549.568 1217.06 535.494 1195.04 525.931 1182.11L516.368 1172.99C476.521 1166.15 448.899 1162.73 433.486 1162.73C431.892 1162.73 423.652 1172.6 408.781 1192.37C395.504 1209.08 373.987 1213.28 344.229 1204.91C312.878 1195.79 294.819 1182.5 290.038 1165.01L291.632 1141.07C216.72 1155.5 166.784 1155.5 141.808 1141.07C125.869 1131.95 114.712 1119.05 108.336 1102.31C107.284 1100.03 103.555 1084.44 97.1792 1055.57C95.5854 1047.98 90.0068 1041.89 80.4436 1037.33C66.6406 1031.25 54.9416 1025.18 45.3784 1019.09C36.3411 959.039 30.7626 856.829 28.6427 712.439C27.5908 640.233 27.5908 574.115 28.6427 514.084L884.552 493.564C1478.54 483.692 1833.43 487.112 1949.26 503.824C2065.09 521.311 2582.3 541.831 3500.91 565.383C3959.94 577.535 4407.5 587.795 4843.75 596.162L4843.78 596.208Z" fill="#57351D"/>
<path fill-rule="evenodd" clip-rule="evenodd" d="M597.704 1898.06L560.248 1858.16H627.988L669.429 1843.34C699.186 1831.19 720.432 1818.26 733.183 1804.61C745.408 1791.68 758.956 1784.09 773.827 1781.81C781.797 1781.03 788.172 1781.42 792.954 1782.95L875.038 1922.02C904.254 1976.74 926.042 2028.82 940.387 2078.22L924.448 2061.12C873.444 2000.32 806.502 1957.75 723.62 1933.42C649.234 1920.47 607.268 1908.71 597.704 1898.06Z" fill="#57351D"/>
<path fill-rule="evenodd" clip-rule="evenodd" d="M1915.04 2114.66C1925.67 2114.66 1936.28 2125.3 1946.91 2146.58C1961.8 2176.97 1976.13 2198.63 1989.95 2211.55C2005.89 2226.76 2023.69 2258.66 2043.34 2307.31C2067.25 2368.1 2086.9 2411.05 2102.32 2436.11C2124.11 2471.83 2136.06 2499.19 2138.18 2518.21C2137.13 2547.1 2138.18 2577.85 2141.37 2610.55C2099.4 2574.84 2057.69 2548.99 2016.25 2533.03C1962.58 2512.53 1899.9 2504.53 1828.17 2509.09C1744.76 2514.4 1675.16 2513.28 1619.37 2505.69C1555.62 2496.57 1494.78 2477.19 1436.88 2447.53C1417.29 2438.2 1389.92 2423 1354.79 2401.93C1411.79 2434.37 1476.87 2449.19 1550.04 2446.39C1618.05 2443.36 1667.46 2429.29 1698.27 2404.21C1716.87 2389 1734.4 2357.86 1750.87 2310.71C1769.47 2256.77 1786.73 2219.9 1802.67 2200.13C1828.7 2168.99 1850.21 2146.94 1867.22 2134.01C1884.28 2121.09 1900.21 2114.63 1915.04 2114.63V2114.66Z" fill="#57351D"/>
<path fill-rule="evenodd" clip-rule="evenodd" d="M4843.78 596.208C4872.47 819.643 4886.8 982.295 4886.8 1084.12C4886.8 1143.4 4868.48 1219.02 4831.82 1310.97C4790.37 1414.32 4768.34 1474.38 4765.68 1491.09C4743.36 1633.2 4700.87 1717.92 4638.17 1745.28C4614.26 1755.93 4562.73 1770.75 4483.56 1789.74C4400.16 1809.48 4318.87 1835.34 4239.7 1867.26C4164.26 1898.4 4106.61 1939.05 4066.77 1989.24C4009.37 2062.95 3962.62 2113.88 3926.49 2141.99C3878.67 2179.98 3815.46 2238.89 3736.83 2318.69C3673.61 2383.28 3623.13 2426.23 3585.42 2447.48C3551.4 2467.25 3453.13 2483.21 3290.55 2495.39C3130.11 2506.79 3031.55 2524.64 2994.89 2548.96C2955.04 2575.57 2900.85 2623.82 2832.31 2693.76C2753.14 2772.79 2700.55 2822.95 2674.52 2844.24C2625.11 2884.53 2570.65 2892.9 2511.15 2869.32C2539.84 2857.17 2571.44 2835.9 2605.98 2805.48C2635.2 2780.4 2676.65 2739.39 2730.3 2682.39C2795.67 2614.74 2857.54 2554.69 2915.99 2502.27C2942.02 2476.42 2955.04 2443.77 2955.04 2404.23C2955.04 2320.63 2960.08 2249.2 2970.17 2189.92L2977.34 2146.62C3012.4 2239.32 3034.99 2310.75 3045.08 2360.91C3052.52 2397.42 3063.15 2420.97 3076.96 2431.61C3089.18 2441.49 3110.97 2446.41 3142.32 2446.41H3374.23C3419.38 2446.41 3461.37 2438.07 3500.13 2421.33C3544.77 2402.32 3577.45 2374.98 3598.15 2339.23C3615.68 2310.34 3642.25 2278.45 3677.85 2243.5C3716.1 2206.24 3737.09 2184.97 3740.8 2179.63C3770.54 2135.56 3785.43 2099.84 3785.43 2072.5V1953.94C3785.43 1943.29 3782.77 1922.02 3777.46 1890.1C3776.41 1860.44 3786.48 1839.19 3807.75 1826.24C3834.3 1810.31 3856.09 1789.76 3873.09 1764.71C3890.63 1739.6 3901.26 1713.79 3904.97 1687.19L3942.43 1451.21L3979.9 1333.8L4038.06 1454.63C4080.57 1539.74 4111.12 1595.62 4129.71 1622.23C4150.97 1653.38 4167.18 1672.37 4178.34 1679.23C4187.36 1684.54 4203.57 1687.21 4226.95 1687.21C4281.68 1687.21 4319.12 1672.76 4339.32 1643.89C4354.2 1622.62 4379.17 1601.35 4414.23 1580.05L4458.86 1440.98L4482.77 1382.84C4500.3 1338.77 4512.25 1301.15 4518.63 1269.98C4523.94 1244.9 4531.11 1217.91 4540.15 1189.04C4544.94 1170.05 4542.81 1154.09 4533.79 1141.16C4512 1109.99 4497.13 1070.87 4489.16 1023.74C4483.83 994.857 4471.35 951.926 4451.69 894.927L4429.39 819.689L4451.69 787.769C4469.23 766.497 4484.09 755.85 4496.31 755.85C4509.08 755.85 4560.34 731.158 4650.12 681.752C4694.75 656.672 4738.31 631.593 4780.82 606.513L4785.6 595.113L4843.78 596.208Z" fill="#4D2E1A"/>
<path fill-rule="evenodd" clip-rule="evenodd" d="M3134.35 851.562C3104.59 1094.76 3079.89 1266.13 3060.24 1365.69C3048.01 1427.25 3030.75 1450.44 3008.44 1435.23C2980.27 1403.31 2957.43 1383.54 2939.9 1375.95C2917.04 1366.83 2893.93 1340.22 2870.55 1296.15C2858.87 1274.86 2837.08 1226.61 2805.2 1151.38C2784.48 1101.97 2751.26 1063.99 2705.58 1037.38C2671.57 1017.61 2617.65 998.619 2543.81 980.379C2490.68 967.452 2573.31 941.985 2791.67 904.001C2900.53 884.986 3014.81 867.522 3134.35 851.562L3315.26 706.785C3448.6 607.219 3547.96 548.693 3613.31 531.229C3678.12 513.741 3754.1 516.021 3841.23 538.069C3887.46 549.468 3941.12 565.04 4002.21 584.808C4032.5 589.367 4058.54 613.695 4080.31 657.766C4098.39 694.245 4107.41 726.917 4107.41 755.804C4107.41 772.516 4101.03 806.351 4088.28 857.262C4062.24 962.892 4048.71 1018.36 4047.64 1023.7C4034.89 1077.66 4035.16 1149.48 4048.44 1239.15C4070.75 1356.18 4088.01 1451.94 4100.24 1526.43C4115.65 1619.91 4120.16 1681.83 4113.79 1712.22C4112.19 1721.34 4109.28 1727.04 4105.02 1729.32H4100.24C4081.64 1686.78 4063.05 1642.32 4044.45 1595.94C4006.74 1503.24 3987.87 1447.75 3987.87 1429.51C3987.87 1345.15 3965.28 1266.86 3920.13 1194.67C3901 1164.28 3872.31 1135.39 3834.06 1108.03C3788.38 1075.34 3744.8 1032.8 3703.36 980.357C3650.77 914.238 3575.58 873.951 3477.85 859.519C3439.59 854.23 3325.15 851.562 3134.37 851.562H3134.35Z" fill="#4D2E1A"/>
<path fill-rule="evenodd" clip-rule="evenodd" d="M2610.76 1683.75C2590.57 1687.55 2567.46 1680.71 2541.43 1663.25C2514.86 1646.54 2501.58 1629.44 2501.58 1611.95C2501.58 1589.9 2510.08 1572.44 2527.08 1559.51C2548.35 1542.8 2578.09 1538.99 2616.36 1548.11C2656.73 1557.21 2671.87 1581.54 2661.78 1621.05C2652.7 1657.53 2635.8 1678.41 2610.78 1683.75H2610.76Z" fill="#57351D"/>
<path fill-rule="evenodd" clip-rule="evenodd" d="M2670.53 1747.58C2680.11 1740.72 2690.73 1749.86 2702.41 1774.92C2714.09 1800.02 2718.62 1821.68 2715.97 1839.92C2711.18 1870.31 2681.16 1870.31 2625.92 1839.92C2594.04 1822.46 2608.87 1791.66 2670.55 1747.58H2670.53Z" fill="#57351D"/>
<path fill-rule="evenodd" clip-rule="evenodd" d="M3936.86 1348.59C3942.17 1368.36 3940.85 1389.63 3932.88 1412.43C3927.04 1429.14 3914.8 1440.93 3896.22 1447.77C3874.96 1456.14 3853.98 1453.86 3833.26 1440.93C3810.4 1426.48 3804.57 1402.17 3815.73 1367.97C3826.34 1333.02 3845.47 1314.39 3873.11 1312.11C3907.69 1309.08 3928.89 1321.23 3936.86 1348.59Z" fill="#57351D"/>
<path fill-rule="evenodd" clip-rule="evenodd" d="M4332.14 1162.78C4357.1 1152.88 4377.03 1158.58 4391.91 1179.88C4406.26 1199.64 4407.85 1217.49 4396.7 1233.45C4377.04 1262.34 4350.49 1269.55 4317 1255.11C4298.94 1248.27 4291.5 1233.09 4294.7 1209.51C4298.37 1185.96 4310.96 1170.37 4332.16 1162.78H4332.14Z" fill="#57351D"/>
<path fill-rule="evenodd" clip-rule="evenodd" d="M1975.6 1802.3C1970.3 1787.12 1967.63 1763.91 1967.63 1732.76C1967.63 1705.41 1974.28 1687.17 1987.56 1678.05C2002.95 1668.17 2024.47 1674.65 2052.11 1697.45C2069.64 1711.88 2073.9 1738.1 2064.86 1776.11C2055.3 1814.09 2039.36 1833.11 2017.04 1833.11C1996.8 1833.08 1983.1 1822.82 1975.6 1802.3Z" fill="#57351D"/>
<path fill-rule="evenodd" clip-rule="evenodd" d="M1563.59 1419.27C1584.83 1412.43 1603.16 1428 1618.57 1466.01C1633.99 1504.77 1633.99 1529.46 1618.57 1540.11C1603.7 1550.76 1586.7 1553.42 1567.57 1548.11C1549.51 1542.8 1531.44 1530.62 1513.38 1511.61C1497.44 1494.9 1495.85 1477.02 1508.6 1458.03C1519.75 1440.54 1538.08 1427.64 1563.59 1419.27Z" fill="#57351D"/>
<path fill-rule="evenodd" clip-rule="evenodd" d="M1249.6 1390.77C1263.41 1399.89 1271.64 1422.3 1274.3 1458.03C1277.49 1496.79 1265.79 1519.59 1239.24 1526.43C1211.61 1532.52 1187.43 1525.29 1166.71 1504.77C1148.64 1485.78 1139.62 1464.48 1139.62 1440.93C1139.62 1411.29 1147.32 1390.02 1162.73 1377.09C1182.4 1358.85 1211.34 1363.41 1249.6 1390.77Z" fill="#57351D"/>
<path fill-rule="evenodd" clip-rule="evenodd" d="M486.13 1725.92L526.773 1762.4C552.275 1789.76 562.11 1811.06 556.26 1826.24C548.833 1843.73 527.044 1843.73 490.911 1826.24C454.778 1808 431.683 1786.34 421.578 1761.26C412.015 1738.46 417.864 1722.87 439.11 1714.52C459.831 1706.91 475.498 1710.72 486.13 1725.92Z" fill="#57351D"/>
<path fill-rule="evenodd" clip-rule="evenodd" d="M770.637 1583.43C786.034 1583.43 801.192 1600.91 816.063 1635.87C830.934 1671.57 832.272 1694.37 820.047 1704.26C808.364 1714.16 794.275 1715.66 777.81 1708.82C763.465 1702.74 749.391 1691.73 735.572 1675.77C723.347 1661.31 721.753 1642.32 730.791 1618.77C739.828 1595.21 753.105 1583.43 770.637 1583.43Z" fill="#57351D"/>
<path fill-rule="evenodd" clip-rule="evenodd" d="M351.447 1276.77C361.552 1298.05 369.251 1320.48 374.558 1344.03C385.19 1391.91 379.069 1421.94 356.229 1434.09C332.321 1447.02 309.736 1433.34 288.489 1393.05C270.431 1358.85 261.394 1327.32 261.394 1298.43C261.394 1251.31 291.406 1244.08 351.447 1276.77Z" fill="#57351D"/>
<path fill-rule="evenodd" clip-rule="evenodd" d="M3573.46 2032.58C3595.76 2032.58 3613.04 2037.5 3625.26 2047.37C3637.49 2056.49 3643.58 2068.28 3643.58 2082.71C3643.58 2100.98 3632.96 2118.08 3611.7 2134.01C3586.74 2153.78 3557.52 2160.62 3524.04 2154.53C3490.04 2147.69 3483.92 2125.64 3505.72 2088.41C3526.92 2051.2 3549.55 2032.58 3573.46 2032.58Z" fill="#57351D"/>
<path fill-rule="evenodd" clip-rule="evenodd" d="M2581.28 1662.09C2561.08 1665.87 2537.72 1659.03 2511.15 1641.57C2484.59 1624.85 2471.3 1607.75 2471.3 1590.27C2471.3 1568.22 2479.79 1550.75 2496.82 1537.83C2518.06 1521.12 2547.81 1517.31 2586.07 1526.43C2626.45 1536.32 2641.86 1560.63 2632.3 1599.39C2623.21 1636.62 2606.32 1657.53 2581.29 1662.09H2581.28Z" fill="#5E574F"/>
<path fill-rule="evenodd" clip-rule="evenodd" d="M2641.05 1725.92C2650.61 1719.08 2661.24 1728.2 2672.92 1753.28C2684.08 1778.36 2688.34 1800.02 2685.68 1818.26C2681.96 1848.65 2652.2 1848.65 2596.42 1818.26C2563.42 1801.55 2578.41 1770.77 2641.05 1725.92Z" fill="#5E574F"/>
<path fill-rule="evenodd" clip-rule="evenodd" d="M3842.83 1290.45C3877.37 1287.42 3898.61 1299.57 3906.58 1326.93C3911.9 1347.45 3910.57 1368.72 3902.6 1390.77C3897.29 1406.73 3885.06 1418.52 3865.94 1426.11C3844.69 1434.48 3823.72 1432.2 3802.98 1419.27C3780.68 1404.84 3774.82 1380.51 3785.45 1346.31C3796.08 1312.11 3815.25 1293.49 3842.83 1290.45Z" fill="#5E574F"/>
<path fill-rule="evenodd" clip-rule="evenodd" d="M4301.86 1141.12C4327.36 1131.24 4347.54 1136.94 4362.43 1158.22C4376.23 1177.98 4377.57 1195.84 4366.41 1211.79C4347.29 1240.68 4320.72 1247.89 4286.72 1233.45C4269.17 1226.61 4262.02 1211.79 4265.19 1189C4268.37 1165.44 4280.65 1149.48 4301.85 1141.12H4301.86Z" fill="#5E574F"/>
<path fill-rule="evenodd" clip-rule="evenodd" d="M1946.12 1780.64C1940.27 1765.46 1937.35 1742.66 1937.35 1712.24C1937.35 1684.13 1944 1665.5 1957.28 1656.41C1972.69 1646.51 1994.46 1652.99 2022.62 1675.79C2040.16 1690.24 2044.41 1716.44 2035.38 1754.45C2025.81 1792.43 2009.87 1811.44 1987.56 1811.44C1967.32 1811.42 1953.61 1801.16 1946.12 1780.64Z" fill="#5E574F"/>
<path fill-rule="evenodd" clip-rule="evenodd" d="M1533.3 1397.61C1555.08 1390.77 1573.68 1406.73 1589.09 1445.49C1604.49 1483.5 1604.23 1508.19 1588.29 1519.59C1573.95 1529.46 1557.21 1531.74 1538.09 1526.43C1520.03 1521.12 1501.95 1509.33 1483.89 1491.09C1467.41 1474.38 1465.56 1456.11 1478.32 1436.37C1490 1418.88 1508.33 1405.98 1533.3 1397.61Z" fill="#5E574F"/>
<path fill-rule="evenodd" clip-rule="evenodd" d="M1219.31 1369.11C1233.13 1379.01 1241.63 1401.81 1244.82 1437.51C1248 1476.27 1236.3 1498.7 1209.75 1504.77C1182.13 1511.61 1157.95 1504.77 1137.23 1484.25C1118.63 1465.26 1109.34 1443.6 1109.34 1419.27C1109.34 1389.63 1117.04 1368.36 1132.45 1355.43C1152.1 1337.19 1181.06 1341.75 1219.31 1369.11Z" fill="#5E574F"/>
<path fill-rule="evenodd" clip-rule="evenodd" d="M456.644 1704.26L497.288 1740.74C522.79 1768.86 532.353 1790.15 525.978 1804.6C518.534 1822.09 496.762 1822.09 460.629 1804.6C424.496 1787.12 401.401 1765.85 391.296 1740.74C381.732 1717.19 387.582 1701.23 408.828 1692.86C429.548 1684.52 445.487 1688.3 456.644 1704.26Z" fill="#5E574F"/>
<path fill-rule="evenodd" clip-rule="evenodd" d="M740.355 1561.77C755.752 1561.77 770.91 1579.25 785.781 1614.21C801.193 1649.91 802.787 1673.12 790.562 1683.75C778.879 1693.64 764.789 1695.14 748.325 1688.31C733.98 1682.22 719.635 1671.21 705.29 1655.25C693.065 1640.81 691.471 1621.43 700.509 1597.11C709.546 1573.56 722.823 1561.77 740.355 1561.77Z" fill="#5E574F"/>
<path fill-rule="evenodd" clip-rule="evenodd" d="M321.963 1255.11C332.052 1276.41 339.751 1299.21 345.074 1323.51C355.705 1370.64 349.601 1400.28 326.745 1412.43C302.311 1425.33 279.725 1411.66 259.005 1371.39C240.946 1337.19 231.909 1305.66 231.909 1276.77C231.909 1229.65 261.938 1222.44 321.963 1255.11Z" fill="#5E574F"/>
<path fill-rule="evenodd" clip-rule="evenodd" d="M3543.97 2010.92C3565.76 2010.92 3583.02 2015.87 3595.78 2025.71C3607.46 2034.83 3613.32 2046.62 3613.32 2061.08C3613.32 2079.32 3602.69 2096.42 3581.45 2112.38C3556.49 2132.12 3527.25 2138.96 3493.78 2132.87C3459.24 2126.03 3453.14 2103.99 3475.45 2066.78C3496.65 2029.55 3519.6 2010.92 3543.99 2010.92H3543.97Z" fill="#5E574F"/>
<path fill-rule="evenodd" clip-rule="evenodd" d="M4062.78 1397.61C4060.12 1365.69 4057.19 1329.99 4054 1290.45C4050.83 1261.57 4046.03 1225.86 4039.67 1183.29C4061.44 1158.22 4092.52 1157.46 4132.91 1181.01C4169.57 1203.06 4205.97 1239.54 4242.11 1290.45C4268.66 1329.21 4275.83 1355.82 4263.62 1370.25C4255.13 1377.09 4248.74 1382.4 4244.5 1386.21C4237.58 1392.3 4234.15 1399.89 4234.15 1409.01C4234.15 1424.22 4230.44 1451.94 4223 1492.23C4215.55 1533.27 4211.84 1558.71 4211.84 1568.61C4211.84 1582.31 4203.34 1595.21 4186.34 1607.37L4160.04 1622.19C4152.59 1620.66 4144.37 1615.32 4135.33 1606.23C4117.78 1588.74 4106.1 1562.13 4100.27 1526.43C4095.49 1500.57 4088.31 1480.44 4078.75 1466.01C4070.78 1454.61 4065.52 1431.81 4062.81 1397.61H4062.78Z" fill="#633B21"/>
<path fill-rule="evenodd" clip-rule="evenodd" d="M1543.67 35.3398C1716.87 10.2604 2013.59 -1.52698 2433.84 0.000583827C2656.46 0.752968 2931.66 3.03292 3259.47 6.84044C3442.76 3.8081 3680.25 65.3668 3971.93 191.517C4051.1 225.716 4167.18 278.155 4320.19 348.833C4452.48 407.36 4560.61 449.151 4644.56 474.231C4834.22 530.477 4890.8 582.916 4814.29 631.547C4745.23 675.619 4618.25 697.666 4433.37 697.666C4318.61 697.666 4155.5 712.098 3944.05 740.985C3702.84 773.657 3521.15 793.036 3398.95 799.124C3339.45 802.156 3135.43 829.516 2786.9 881.202C2532.95 918.434 2325.75 924.909 2165.29 900.582C1947.46 868.663 1785.68 847.755 1679.96 837.883C1554.57 825.731 1417.51 819.644 1268.74 819.644C1087.04 819.644 885.142 799.489 663.067 759.225C403.792 711.346 211.204 650.175 85.2885 575.689C-33.2 505.01 16.4811 425.599 234.316 337.434C406.454 268.283 568.487 224.576 720.447 206.336C748.068 203.304 826.439 183.924 955.543 148.197C1095.8 108.686 1291.85 71.0667 1543.68 35.3398H1543.67Z" fill="#577820"/>
<path fill-rule="evenodd" clip-rule="evenodd" d="M1322.91 118.558C1342.57 125.397 1352.4 133.765 1352.4 143.637C1352.4 153.532 1342.57 161.877 1322.91 168.717C1302.72 175.556 1278.81 178.976 1251.19 178.976C1223.57 178.976 1199.91 175.556 1180.26 168.717C1160.61 161.877 1150.78 153.509 1150.78 143.637C1150.78 133.765 1160.59 125.397 1180.26 118.558C1199.91 111.718 1223.57 108.298 1251.19 108.298C1278.81 108.298 1302.72 111.718 1322.91 118.558Z" fill="#497114"/>
<path fill-rule="evenodd" clip-rule="evenodd" d="M503.663 552.889C503.663 562.761 493.829 571.493 474.176 579.108C454.524 585.948 430.616 589.368 402.452 589.368C374.83 589.368 351.177 585.948 331.525 579.108C311.872 571.516 302.038 562.761 302.038 552.889C302.038 542.994 311.856 534.649 331.525 527.81C351.177 520.97 374.83 517.55 402.452 517.55C430.074 517.55 453.982 520.97 474.176 527.81C493.829 534.649 503.663 542.994 503.663 552.889Z" fill="#497114"/>
<path fill-rule="evenodd" clip-rule="evenodd" d="M1930.98 108.298C1959.14 108.298 1983.05 111.718 2002.7 118.558C2022.35 126.15 2032.19 134.882 2032.19 144.777C2032.19 154.649 2022.35 163.017 2002.7 169.857C1982.51 176.696 1958.6 180.116 1930.98 180.116C1903.36 180.116 1879.72 176.696 1860.05 169.857C1840.4 163.017 1830.56 154.649 1830.56 144.777C1830.56 134.882 1840.4 126.15 1860.05 118.558C1879.65 111.718 1903.4 108.298 1930.98 108.298Z" fill="#497114"/>
<path fill-rule="evenodd" clip-rule="evenodd" d="M1781.15 474.23C1781.15 484.125 1771.32 492.857 1751.66 500.449C1732.54 507.289 1708.9 510.709 1680.74 510.709C1652.57 510.709 1628.94 507.289 1609.81 500.449C1590.16 492.857 1580.32 484.102 1580.32 474.23C1580.32 464.358 1590.16 455.99 1609.81 449.15C1629.46 442.311 1653.11 438.891 1680.74 438.891C1708.36 438.891 1732 442.311 1751.66 449.15C1771.27 455.99 1781.15 464.358 1781.15 474.23Z" fill="#497114"/>
<path fill-rule="evenodd" clip-rule="evenodd" d="M2581.27 251.936C2609.44 251.936 2633.08 255.356 2652.2 262.196C2671.85 269.788 2681.69 278.543 2681.69 288.415C2681.69 298.31 2671.87 306.655 2652.2 313.495C2632.53 320.335 2608.9 323.755 2581.27 323.755C2553.65 323.755 2530 320.335 2510.35 313.495C2490.69 306.655 2480.86 298.287 2480.86 288.415C2480.86 278.543 2490.68 269.811 2510.35 262.196C2529.47 255.356 2553.06 251.936 2581.27 251.936Z" fill="#497114"/>
<path fill-rule="evenodd" clip-rule="evenodd" d="M981.028 398.992C981.028 408.865 971.209 417.232 951.541 424.072C931.889 430.912 908.235 434.332 880.614 434.332C852.992 434.332 829.339 430.912 809.686 424.072C790.034 417.232 780.2 408.865 780.2 398.992C780.2 389.097 790.018 380.365 809.686 372.773C828.813 365.933 852.466 362.513 880.614 362.513C908.761 362.513 932.415 365.933 951.541 372.773C971.209 380.365 981.028 389.097 981.028 398.992Z" fill="#497114"/>
<path fill-rule="evenodd" clip-rule="evenodd" d="M1165.92 676.007C1165.92 685.902 1156.08 694.634 1136.43 702.226C1116.78 709.066 1093.14 712.486 1065.5 712.486C1037.34 712.486 1013.43 709.066 993.78 702.226C974.127 694.634 964.293 685.902 964.293 676.007C964.293 666.135 974.127 657.767 993.78 650.927C1013.97 644.087 1037.88 640.667 1065.5 640.667C1093.13 640.667 1116.76 644.087 1136.43 650.927C1156.08 657.767 1165.92 666.135 1165.92 676.007Z" fill="#497114"/>
<path fill-rule="evenodd" clip-rule="evenodd" d="M2289.6 639.527C2289.6 649.422 2279.76 657.767 2260.11 664.606C2239.92 671.446 2216.01 674.866 2188.39 674.866C2160.76 674.866 2137.13 671.446 2117.46 664.606C2097.81 657.767 2087.97 649.399 2087.97 639.527C2087.97 629.655 2097.81 620.923 2117.46 613.308C2137.11 606.468 2160.75 603.048 2188.39 603.048C2216.55 603.048 2240.46 606.468 2260.11 613.308C2279.72 620.9 2289.6 629.655 2289.6 639.527Z" fill="#497114"/>
<path fill-rule="evenodd" clip-rule="evenodd" d="M4076.33 605.327C4076.33 615.222 4066.51 623.955 4046.84 631.547C4027.19 638.387 4003.28 641.807 3975.12 641.807C3947.5 641.807 3923.84 638.387 3904.19 631.547C3884.54 623.955 3874.69 615.2 3874.69 605.327C3874.69 595.455 3884.52 587.088 3904.19 580.248C3923.84 573.408 3947.5 569.988 3975.12 569.988C4002.74 569.988 4026.65 573.408 4046.84 580.248C4066.45 587.088 4076.33 595.455 4076.33 605.327Z" fill="#497114"/>
<path fill-rule="evenodd" clip-rule="evenodd" d="M3724.88 136.797C3724.88 146.669 3715.05 155.037 3695.38 161.877C3675.18 168.717 3651.28 172.137 3623.65 172.137C3596.03 172.137 3572.33 168.717 3552.73 161.877C3533.07 155.037 3523.22 146.669 3523.22 136.797C3523.22 126.902 3533.06 118.558 3552.73 111.718C3572.38 104.878 3596.02 101.458 3623.64 101.458C3651.26 101.458 3675.17 104.878 3695.36 111.718C3714.97 118.558 3724.85 126.902 3724.85 136.797H3724.88Z" fill="#497114"/>
<path fill-rule="evenodd" clip-rule="evenodd" d="M4543.33 461.69C4570.95 461.69 4594.86 465.11 4615.06 471.95C4634.71 478.79 4644.56 487.157 4644.56 497.03C4644.56 506.925 4634.73 515.269 4615.06 522.109C4594.86 528.949 4570.95 532.369 4543.33 532.369C4515.71 532.369 4492.06 528.949 4472.41 522.109C4452.75 515.269 4442.92 506.902 4442.92 497.03C4442.92 487.157 4452.74 478.79 4472.41 471.95C4492.01 465.11 4515.76 461.69 4543.33 461.69Z" fill="#497114"/>
<path fill-rule="evenodd" clip-rule="evenodd" d="M3226.8 417.232C3246.45 409.64 3270.1 405.833 3297.72 405.833C3325.35 405.833 3348.98 409.64 3368.63 417.232C3388.29 424.072 3398.14 432.44 3398.14 442.312C3398.14 452.207 3388.3 460.551 3368.63 467.391C3348.97 474.231 3325.35 477.651 3297.72 477.651C3270.1 477.651 3246.45 474.231 3226.8 467.391C3207.14 460.551 3197.29 452.184 3197.29 442.312C3197.29 432.44 3207.18 424.072 3226.78 417.232H3226.8Z" fill="#497114"/>
<path fill-rule="evenodd" clip-rule="evenodd" d="M3147.9 100.319C3147.9 110.214 3138.08 118.946 3118.41 126.538C3098.81 133.378 3075.06 136.798 3047.49 136.798C3019.32 136.798 2995.41 133.378 2975.76 126.538C2956.11 118.946 2946.26 110.214 2946.26 100.319C2946.26 90.4466 2956.09 82.0791 2975.76 75.2393C2995.96 68.3994 3019.86 64.9795 3047.49 64.9795C3075.11 64.9795 3098.76 68.3994 3118.41 75.2393C3138.02 82.0791 3147.9 90.4466 3147.9 100.319Z" fill="#497114"/>
<path fill-rule="evenodd" clip-rule="evenodd" d="M4852.54 666.886C4858.9 713.99 4864.77 769.097 4870.08 832.183L4863.72 817.363C4856.27 865.242 4846.71 890.686 4835.01 893.742C4827.58 896.022 4819.34 890.686 4810.31 877.782L4799.15 858.402C4794.37 869.05 4789.06 878.169 4783.21 885.762C4770.46 901.721 4760.37 904.366 4752.94 893.742L4713.89 837.883C4708.58 830.29 4699.8 832.935 4687.59 845.863C4671.13 864.102 4652.54 873.222 4631.81 873.222C4608.44 873.222 4590.64 880.062 4578.41 893.742L4568.05 914.261L4539.36 955.3L4529.02 949.6C4524.76 948.096 4513.35 929.833 4494.75 894.882L4468.45 843.583C4466.33 880.814 4463.94 907.786 4461.3 924.521C4460.23 935.168 4463.42 959.495 4470.86 997.479L4482.81 1052.2L4436.59 1006.6C4417.48 986.832 4402.34 961.388 4391.17 930.221L4380.01 889.182C4380.01 905.894 4378.69 936.285 4376.02 980.38C4374.97 1007.74 4366.46 1038.88 4350.52 1073.86L4326.61 1118.32V1046.5C4326.61 1016.86 4318.92 980.767 4303.5 938.201L4280.39 883.482C4277.75 927.553 4272.95 975.068 4266.06 1025.98C4261.26 1057.9 4244.53 1094.76 4215.85 1136.56L4173.62 1189L4198.34 1108.06C4208.43 1073.86 4212.67 1030.54 4211.09 978.1C4210.56 952.268 4208.7 929.468 4205.5 909.701C4200.71 933.253 4181.86 962.14 4148.91 996.339C4128.19 1017.61 4101.1 1035.1 4067.62 1048.78L4023.79 1062.46L4052.48 1031.68C4071.61 1011.16 4096.59 967.088 4127.4 899.441C4075.32 919.961 4030.15 930.221 3991.92 930.221C3968.53 930.221 3947.29 932.113 3928.16 935.921L3906.63 940.481L3920.97 965.56C3930.54 982.272 3941.17 997.479 3952.85 1011.16H3885.11C3864.39 1011.16 3843.41 1000.9 3822.15 980.38L3796.65 949.6V1015.72C3796.65 1043.08 3797.97 1066.63 3800.64 1086.4L3803.82 1108.06L3771.13 1087.54C3757.86 1079.17 3739.8 1052.95 3716.96 1008.88L3685.88 945.041L3675.52 1025.98C3671.26 1060.18 3661.19 1091.71 3645.25 1120.6L3622.14 1153.66L3618.95 1087.54C3616.3 1043.44 3606.72 992.532 3590.26 934.781C3578.58 985.692 3564.22 1034.71 3547.23 1081.84C3537.14 1111.48 3522.79 1138.45 3504.19 1162.78L3479.49 1189L3490.64 1138.84C3497.56 1104.64 3498.61 1050.28 3493.83 975.82C3477.37 1006.21 3451.32 1043.47 3415.73 1087.54C3393.43 1114.9 3366.07 1133.14 3333.66 1142.26L3291.43 1147.96L3312.94 1118.32C3327.29 1097.8 3348.53 1063.6 3376.7 1015.72L3305.77 1046.5C3276.01 1059.43 3252.9 1058.29 3236.42 1043.08L3220.48 1015.72V1041.94C3220.48 1052.56 3224.74 1070.83 3233.23 1096.66L3245.19 1133.14L3206.15 1122.88C3189.67 1118.32 3162.85 1099.32 3125.65 1065.88L3074.66 1015.72C3074.66 1033.21 3077.03 1057.15 3081.81 1087.54C3085 1106.53 3092.97 1130.08 3105.72 1158.22C3112.1 1172.65 3118.22 1184.82 3124.05 1194.7C3088.46 1190.89 3057.64 1175.32 3031.61 1147.96C3015.14 1131.24 2999.73 1107.67 2985.39 1077.28L2967.85 1036.24C2958.27 1070.44 2952.44 1101.22 2950.3 1128.58C2948.71 1145.29 2947.66 1167.34 2947.13 1194.7L2946.32 1230.03L2907.29 1184.44C2890.81 1165.44 2876.46 1133.52 2864.25 1088.68C2858.4 1065.88 2853.89 1044.97 2850.69 1025.98C2848.04 1060.18 2837.14 1102.74 2818.01 1153.66C2806.33 1185.58 2790.92 1215.58 2771.81 1243.71L2747.09 1275.63V1194.7C2747.09 1153.66 2743.64 1093.99 2736.74 1015.72C2724.52 1049.92 2711.49 1092.49 2697.69 1143.4C2688.67 1175.32 2666.34 1214.46 2630.75 1260.81L2579.75 1321.23L2594.09 1281.33C2603.65 1253.97 2610.83 1189.36 2615.61 1087.54C2603.92 1111.09 2588.53 1134.64 2569.4 1158.22C2557.72 1173.42 2540.46 1190.91 2517.6 1210.65L2487.32 1234.59L2498.47 1204.96C2505.39 1184.44 2514.68 1153.66 2526.37 1112.62C2505.12 1126.3 2486.25 1135.03 2469.78 1138.84C2459.68 1141.12 2445.35 1135.78 2426.75 1122.88L2402.04 1102.36L2430.73 1244.85L2391.68 1209.52C2375.22 1195.08 2351.84 1165.06 2321.55 1119.46L2280.91 1056.76C2285.69 1073.47 2289.41 1103.86 2292.07 1147.96C2293.66 1176.07 2292.86 1203.43 2289.68 1230.03L2284.89 1260.81C2282.23 1256.25 2278.79 1249.8 2274.53 1241.43C2266.02 1224.72 2258.87 1205.71 2253.02 1184.44C2247.17 1163.14 2235.76 1147.57 2218.75 1137.7L2195.64 1128.58L2206.79 1209.52C2197.23 1206.48 2178.11 1182.91 2149.42 1138.84C2131.88 1111.48 2115.42 1088.68 2100.01 1070.44L2082.47 1052.2C2086.73 1065.88 2090.17 1091.35 2092.83 1128.58C2094.43 1152.13 2093.63 1181.77 2090.44 1217.49L2085.66 1265.37C2078.74 1241.82 2069.18 1214.83 2056.97 1184.44C2045.29 1154.04 2021.65 1114.9 1986.04 1067.02L1978.87 1097.8C1975.68 1110.72 1975.43 1131.61 1978.07 1160.5L1982.86 1199.26L1950.18 1168.48C1936.9 1156.32 1924.68 1131.61 1913.52 1094.38C1908.21 1075.39 1903.96 1057.9 1900.77 1041.94V1133.14C1900.77 1152.13 1906.08 1178.35 1916.71 1211.8L1932.65 1255.11L1900.77 1230.03C1887.49 1219.39 1868.62 1184.05 1844.19 1124.02L1811.51 1036.24C1811.51 1049.92 1809.12 1077.28 1804.34 1118.32C1801.15 1143.4 1793.19 1163.53 1780.43 1178.74L1762.1 1194.7L1758.12 1147.96C1756 1117.56 1744.32 1071.97 1723.05 1011.16C1721.46 1023.31 1717.21 1038.13 1710.3 1055.62C1697.03 1091.35 1678.7 1124.02 1655.32 1153.66C1630.87 1184.05 1602.45 1204.96 1570.04 1216.35C1538.17 1227.75 1526.21 1227.37 1534.18 1215.21C1541.62 1204.59 1553.58 1165.44 1570.04 1097.8C1560.48 1100.83 1536.84 1102.36 1499.12 1102.36C1463.52 1102.36 1444.65 1099.32 1442.53 1093.24L1463.25 1147.96L1413.84 1133.14C1393.12 1127.05 1371.33 1110.72 1348.49 1084.12L1320.6 1046.5V1092.1C1320.6 1111.86 1323.79 1135.42 1330.17 1162.78L1338.93 1199.26L1189.11 1062.46V1194.7L1043.27 1015.72V1077.28C1043.27 1103.11 1040.34 1132.75 1034.5 1166.2L1025.74 1209.52L1018.56 1168.48C1013.78 1141.87 998.369 1101.22 972.341 1046.5L969.153 1077.28C967.559 1090.18 961.184 1122.88 950.027 1175.32L933.291 1250.55L930.103 1194.7C927.441 1157.46 904.872 1101.22 862.364 1025.98L858.379 1108.06C857.311 1141.48 858.108 1167.72 860.77 1186.72L865.551 1204.96L833.674 1174.18C820.397 1161.25 798.609 1124.38 768.325 1063.6L726.885 975.82C731.666 1002.43 732.989 1036.24 730.869 1077.28C729.275 1103.11 722.9 1135.42 711.743 1174.18L695.007 1224.33L691.819 1168.48C689.158 1131.24 665.249 1067.02 620.095 975.82L609.735 1015.72C604.953 1033.21 606.547 1061.32 614.517 1100.08L627.267 1153.66L577.857 1092.1C557.137 1067.02 539.605 1028.26 525.26 975.82C518.342 949.213 513.306 925.296 510.118 904.001L506.133 949.6C505.081 969.368 497.638 999.759 483.819 1040.8L463.896 1097.8L459.911 1041.94C458.843 1018.36 449.009 987.584 430.424 949.6L403.328 899.441L406.516 1062.46L378.623 1036.24C366.94 1025.59 346.746 996.339 318.056 948.46L279.006 878.922V934.781C279.006 958.333 283.262 993.284 291.757 1039.66L303.711 1102.36L257.489 1052.2C238.363 1030.93 211.793 978.852 177.795 896.022L133.167 777.464L125.995 827.623C122.807 848.918 125.995 891.849 135.558 956.44L150.7 1046.5L115.634 970.12C100.748 938.201 89.0646 888.817 80.5692 821.923C76.3136 789.251 73.6678 759.224 72.5999 731.865L62.2397 751.245C57.4581 759.589 52.4055 778.216 47.0979 807.103L40.7224 848.143L36.7378 816.223C33.55 784.304 31.1592 744.017 29.5653 695.386C28.4974 646.754 35.9408 608.36 51.8796 580.248C59.8489 566.568 67.8183 557.449 75.7876 552.889C75.2617 555.921 75.2617 559.341 75.7876 563.148C76.3136 570.741 78.7204 577.581 82.9601 583.668C86.6738 588.98 94.3722 592.4 106.071 593.928C119.348 596.208 129.453 599.628 136.355 604.188C136.897 604.188 149.106 608.36 173.014 616.727C186.833 621.287 193.734 630.795 193.734 645.227C193.734 660.434 203.297 671.059 222.424 677.146C225.086 678.651 248.723 683.234 293.351 690.826C315.139 694.633 354.715 706.785 412.095 727.305C465.76 747.072 493.653 756.944 495.773 756.944C521.801 756.944 547.845 758.449 573.873 761.504C586.098 763.032 599.375 767.592 613.72 775.184C628.064 781.272 643.206 785.444 659.145 787.724C689.954 790.756 725.562 804.071 765.934 827.623L801 828.763C828.095 829.515 852.003 831.043 872.724 833.323C889.715 834.85 910.451 837.13 934.885 840.163C956.131 842.443 976.852 843.583 997.046 843.583C1009.27 843.583 1054.15 845.863 1131.73 850.422C1199.74 854.23 1239.04 855.37 1249.67 853.842C1268.8 850.035 1316.36 848.143 1392.33 848.143C1408.79 848.143 1451.55 848.895 1520.63 850.422C1590.76 851.198 1646.28 850.423 1687.19 848.143C1723.33 846.615 1745.37 848.895 1753.34 854.982C1761.83 861.07 1776.45 864.102 1797.17 864.102C1818.42 864.102 1850.56 869.05 1893.6 878.922C1933.99 887.289 1969.58 890.709 2000.39 889.182C2115.67 881.589 2200.95 884.987 2256.2 899.441C2266.31 902.474 2287.03 909.701 2318.37 921.101C2332.17 926.413 2360.06 930.996 2402.04 934.781C2443.49 938.588 2487.32 939.341 2533.54 937.061C2573.39 934.781 2594.9 934.028 2598.09 934.781C2610.32 938.588 2633.16 938.588 2666.63 934.781C2708.08 930.221 2746.85 919.961 2782.98 904.001C2813.81 890.322 2854.7 884.622 2905.71 886.902C2962.02 888.429 2996.83 887.289 3010.11 883.482C3034.01 877.394 3051.29 870.19 3061.91 861.822C3068.82 856.51 3081.3 845.11 3099.38 827.623C3115.32 815.471 3134.72 812.051 3157.54 817.363C3170.83 821.171 3192.88 827.988 3223.69 837.883C3243.34 841.69 3258.75 842.83 3269.91 841.303C3288.49 839.023 3299.12 837.883 3301.79 837.883C3312.4 837.883 3327.02 832.183 3345.62 820.783C3363.68 808.631 3378.82 802.544 3391.04 802.544L3575.93 807.103C3580.73 807.103 3596.4 807.491 3622.95 808.243C3649.52 808.996 3669.44 807.103 3682.72 802.544C3703.98 795.704 3740.64 792.284 3792.7 792.284H3875.58C3913.29 790.756 3942.51 785.831 3963.24 777.464C3980.23 770.624 4014.5 753.525 4066.03 726.165C4114.39 702.59 4150.25 690.826 4173.62 690.826C4194.35 690.826 4222.5 695.021 4258.11 703.366C4293.72 711.71 4316.54 715.905 4326.65 715.905C4336.21 715.905 4353.74 717.798 4379.24 721.605C4404.75 724.637 4428.65 726.165 4450.97 726.165C4473.82 726.165 4525.62 722.745 4606.37 715.905C4700.41 706.785 4756.46 701.838 4774.52 701.086C4806.88 699.558 4833.02 688.158 4852.62 666.886H4852.54Z" fill="#472B18"/>
<path fill-rule="evenodd" clip-rule="evenodd" d="M4823.86 601.908C4833.95 591.261 4840.59 580.636 4843.78 569.989C4860.77 597.348 4874.05 631.547 4883.63 672.586C4889.46 697.666 4891.05 727.305 4888.41 761.505L4883.63 804.824V763.785C4883.63 736.425 4876.45 704.118 4862.09 666.887L4858.11 870.942V834.463C4858.11 810.888 4849.87 783.917 4833.4 753.525C4826.49 801.404 4816.94 826.871 4804.71 829.903C4797.27 832.183 4789.3 826.871 4780.81 813.944L4769.65 794.564C4764.87 804.436 4759.29 813.556 4752.91 821.923C4740.69 837.883 4730.85 840.551 4723.41 829.903L4684.38 774.044C4679.05 766.452 4670.29 769.097 4658.08 782.024C4641.09 800.264 4622.49 809.384 4602.29 809.384C4578.91 809.384 4561.12 816.224 4548.9 829.903L4538.54 850.423L4509.85 891.462L4498.69 885.762C4494.43 884.234 4483.28 865.995 4465.22 831.043L4438.92 778.604C4436.26 815.836 4433.88 843.195 4431.75 860.683C4430.15 871.33 4433.09 895.634 4440.51 933.641L4452.47 987.22L4406.26 941.621C4387.14 922.629 4371.99 897.549 4360.82 866.382L4349.68 825.343C4349.68 842.055 4348.61 872.447 4346.49 916.541C4344.88 943.901 4336.13 975.045 4320.19 1010.02L4296.28 1053.34V982.66C4296.28 953.021 4288.59 916.929 4273.17 874.362L4250.08 819.643C4247.94 863.715 4243.16 911.229 4235.73 962.141C4231.48 994.06 4214.76 1030.93 4185.53 1072.72L4143.3 1125.16L4168.01 1043.08C4178.64 1009.63 4183.15 966.313 4181.56 913.121C4180.51 887.29 4178.39 864.49 4175.2 844.723C4170.42 869.05 4151.56 897.914 4118.62 931.361C4097.88 952.633 4070.8 970.12 4037.31 983.8L3994.28 997.48L4022.17 967.84C4041.3 947.321 4066.27 902.862 4097.08 834.463C4045.01 854.983 4000.13 865.242 3962.4 865.242C3938.49 865.242 3916.97 867.135 3897.85 870.942L3876.33 875.502L3890.66 900.582C3900.24 918.069 3911.13 933.641 3923.35 947.321H3855.61C3834.87 947.321 3813.63 937.061 3791.86 916.541L3766.34 885.762V951.881C3766.34 979.24 3767.68 1002.79 3770.32 1022.56L3773.51 1043.08L3741.63 1023.7C3728.36 1015.33 3710.28 989.112 3687.44 945.041L3656.38 881.202L3645.22 962.141C3640.96 995.565 3630.87 1027.12 3614.94 1056.76L3591.82 1089.82L3588.65 1023.7C3586.52 979.628 3576.97 928.694 3559.95 870.942C3548.26 921.854 3534.19 970.873 3517.73 1018C3507.09 1047.64 3492.77 1074.61 3474.69 1098.94L3449.99 1125.16L3460.33 1073.86C3467.77 1040.41 3469.11 986.08 3464.32 910.842C3447.85 941.986 3421.82 979.628 3386.23 1023.7C3363.92 1051.06 3336.28 1069.3 3303.35 1078.42L3261.11 1084.12L3282.65 1053.34C3296.97 1033.57 3318.51 999.76 3347.2 951.881L3275.47 982.66C3245.73 995.565 3222.62 994.447 3206.14 979.24L3190.2 951.881V976.96C3190.2 987.585 3194.46 1006.21 3202.95 1032.82L3214.91 1069.3L3175.86 1059.04C3159.39 1054.48 3132.55 1035.46 3095.37 1002.04L3044.36 951.881C3044.36 968.593 3046.75 992.532 3051.53 1023.7C3054.72 1042.69 3062.69 1066.27 3075.44 1094.38C3082.36 1108.06 3088.72 1119.84 3094.57 1129.72C3058.98 1126.68 3028.15 1111.48 3002.11 1084.12C2985.64 1067.41 2969.96 1043.83 2955.1 1013.44L2937.56 972.4C2927.99 1006.6 2922.14 1036.99 2920.02 1063.6C2918.41 1081.09 2917.36 1103.5 2916.84 1130.86L2916.04 1166.2L2876.99 1119.46C2860.52 1100.47 2846.16 1068.55 2833.95 1023.7C2828.12 1001.65 2823.61 981.133 2820.41 962.141C2818.27 996.34 2807.66 1038.88 2788.53 1089.82C2776.85 1121.74 2761.43 1151.76 2742.31 1179.88L2717.6 1211.8V1129.72C2717.6 1089.43 2713.89 1030.15 2706.44 951.881C2694.76 986.08 2681.74 1028.65 2667.39 1079.56C2658.37 1111.48 2636.06 1150.62 2600.47 1196.98L2550.26 1257.39L2564.61 1216.36C2573.63 1189 2580.54 1124.77 2585.33 1023.7C2573.64 1047.25 2558.23 1070.83 2539.1 1094.38C2527.42 1108.81 2510.41 1125.91 2488.1 1145.68L2457.83 1170.76L2468.19 1139.98C2475.64 1119.46 2485.2 1089.07 2496.9 1048.78C2475.64 1062.46 2456.51 1070.83 2439.5 1073.86C2429.41 1076.14 2415.07 1070.83 2396.47 1057.9L2372.56 1038.52L2400.45 1181.02L2361.4 1145.68C2344.94 1130.47 2321.83 1100.47 2292.07 1055.62L2251.43 992.92C2256.21 1009.63 2259.67 1040.05 2261.79 1084.12C2263.38 1111.48 2262.58 1138.45 2259.4 1165.06L2254.61 1195.84C2251.95 1192.03 2248.49 1185.58 2244.25 1176.46C2235.76 1159.74 2228.59 1140.73 2222.74 1119.46C2216.89 1098.94 2205.73 1083.37 2189.26 1072.72L2166.15 1063.6L2176.51 1145.68C2166.95 1141.87 2148.1 1117.93 2119.93 1073.86C2101.87 1046.5 2085.12 1023.7 2069.72 1005.46L2052.19 987.22C2056.97 1000.9 2060.43 1026.37 2062.55 1063.6C2064.15 1087.15 2063.35 1117.18 2060.16 1153.66L2055.38 1201.54C2048.46 1177.96 2039.17 1150.62 2027.49 1119.46C2015.26 1089.07 1991.35 1050.28 1955.76 1003.18L1949.39 1033.96C1946.2 1046.11 1945.94 1066.63 1948.59 1095.52L1952.57 1135.42L1920.7 1104.64C1907.42 1091.71 1895.2 1066.63 1884.04 1029.4C1878.19 1010.41 1873.68 992.92 1870.49 976.96V1069.3C1870.49 1088.29 1876.07 1114.51 1887.23 1147.96L1903.16 1191.28L1870.49 1166.2C1857.21 1155.55 1838.61 1119.84 1814.7 1059.04L1782.03 972.4C1782.03 986.08 1779.64 1013.05 1774.86 1053.34C1771.67 1079.17 1763.7 1099.69 1750.95 1114.9L1731.82 1129.72L1728.64 1084.12C1725.97 1053.73 1714.02 1008.13 1692.77 947.321C1691.18 959.496 1687.2 974.315 1680.82 991.78C1667.54 1027.48 1648.94 1060.18 1625.03 1089.82C1600.58 1120.98 1572.17 1141.89 1539.76 1152.52C1507.88 1163.16 1496.2 1162.41 1504.7 1150.24C1511.61 1140.34 1523.3 1101.58 1539.76 1033.96C1530.2 1036.99 1506.56 1038.52 1468.83 1038.52C1445.47 1038.52 1428.99 1037.01 1419.42 1033.96L1412.25 1028.26L1432.97 1084.12L1383.56 1069.3C1362.84 1062.46 1341.05 1046.11 1318.21 1020.28L1291.12 982.66V1028.26C1291.12 1047.25 1294.05 1070.83 1299.88 1098.94L1308.65 1135.42L1159.62 997.48V1129.72L1013.78 951.881V1013.44C1013.78 1038.52 1010.85 1068.16 1005.02 1102.36L996.251 1145.68L989.079 1104.64C984.297 1077.28 968.885 1036.63 942.857 982.66L938.872 1013.44C937.82 1025.59 931.445 1057.9 919.746 1110.34L903.01 1185.58L899.822 1129.72C898.754 1106.17 887.071 1071.21 864.757 1024.84L832.083 962.141L828.895 1043.08C827.301 1077.28 828.098 1103.89 831.286 1122.88L836.067 1139.98L804.19 1109.2C790.371 1097.05 768.599 1060.18 738.841 998.62L697.4 910.842C702.182 938.201 703.25 972.4 700.588 1013.44C699.52 1038.52 693.145 1070.44 681.462 1109.2L664.726 1160.5L661.538 1104.64C658.876 1067.38 635.239 1002.79 590.611 910.842L579.454 951.881C575.198 969.368 577.063 997.48 585.032 1036.24L597.783 1089.82L547.576 1028.26C526.856 1003.18 509.323 964.42 494.979 911.982C488.077 885.374 483.024 861.435 479.837 840.163L476.649 885.762C475.055 904.754 467.357 935.169 453.538 976.96L433.614 1033.96L430.427 976.96C427.765 939.729 408.638 892.214 373.047 834.463L377.032 997.48L348.342 972.4C336.659 961.753 316.465 932.501 287.775 884.622L248.725 815.084V870.942C248.725 894.494 252.981 929.446 261.476 975.82L274.227 1038.52L227.208 987.22C208.081 966.7 181.512 914.649 147.514 831.043L102.886 712.486L95.7135 763.785C92.5257 785.057 95.9844 827.988 106.074 892.602L121.215 982.66L85.3533 906.282C70.4665 874.362 58.7834 824.956 50.2881 758.085C46.0325 724.638 43.3866 694.246 42.3187 666.887L31.9586 687.406C27.7029 695.774 22.9372 714.401 17.6137 743.265L10.4413 784.304L6.45661 752.385C3.79484 720.465 1.67499 680.179 0.0811158 631.547C-1.51276 582.893 5.65967 544.522 21.5984 516.41C29.5678 502.73 37.8081 493.61 46.3034 489.05C45.7774 491.33 45.5065 494.363 45.5065 498.17C46.0325 505.762 48.6942 512.99 53.4758 519.83C57.1896 525.142 64.633 528.562 75.7901 530.089C89.6089 531.594 99.9691 535.037 106.871 540.349C107.923 541.102 120.148 545.274 143.53 552.889C156.807 557.449 163.453 566.569 163.453 580.248C163.453 596.208 173.016 607.22 192.143 613.308C196.924 614.835 220.577 619.008 263.07 625.847C285.384 629.655 324.96 642.172 381.814 663.467C436.005 683.234 464.169 693.106 466.289 693.106C492.317 693.106 518.361 694.634 544.389 697.666C556.614 699.171 569.891 703.366 584.235 710.206C598.58 717.046 613.722 721.218 629.661 722.745C660.486 726.553 696.077 740.233 736.45 763.785L843.24 768.345C902.739 775.184 944.18 778.604 967.562 778.604C978.193 778.604 1022.81 780.884 1101.45 785.444C1169.46 790.004 1209.03 791.144 1220.19 788.864C1238.79 785.832 1286.08 784.304 1362.05 784.304C1379.04 784.304 1422.09 785.057 1491.15 786.584C1561.28 786.584 1616.81 785.832 1657.71 784.304C1693.84 782.024 1715.88 783.917 1723.85 790.004C1732.37 796.092 1746.97 799.124 1767.69 799.124C1788.41 799.124 1820.28 804.071 1863.32 813.944C1903.71 823.063 1939.3 826.848 1970.11 825.343C2085.39 817.751 2170.94 820.783 2226.72 834.463C2238.95 837.495 2259.65 844.723 2288.88 856.123C2303.23 862.21 2331.12 867.135 2372.56 870.942C2413.46 874.75 2457.31 875.502 2504.05 873.222C2542.85 870.19 2564.1 869.415 2567.81 870.942C2581.1 874.75 2603.94 874.75 2636.36 870.942C2678.33 865.63 2717.11 855.347 2752.71 840.163C2784.07 826.483 2825.24 820.396 2876.24 821.923C2933.08 823.451 2967.89 822.699 2980.64 819.643C3004.02 813.556 3021.01 806.351 3031.64 797.984C3038.56 792.672 3051.04 781.272 3069.1 763.785C3085.04 750.857 3104.43 747.437 3127.27 753.525C3141.08 757.332 3163.41 764.172 3194.22 774.044C3213.87 777.852 3229.01 778.969 3239.64 777.464C3258.77 775.184 3269.67 774.044 3272.32 774.044C3282.95 774.044 3297.28 768.345 3315.35 756.945C3333.95 744.77 3349.08 738.705 3360.78 738.705L3545.68 743.265C3550.46 743.265 3566.13 743.653 3592.7 744.405C3619.26 745.157 3639.18 743.265 3652.47 738.705C3673.72 731.865 3710.63 728.445 3763.23 728.445H3845.31C3883.03 726.918 3912.53 721.605 3933.77 712.486C3950.24 706.398 3984.25 689.686 4035.78 662.327C4084.65 638.022 4120.51 625.847 4143.37 625.847C4164.09 625.847 4192.24 630.407 4227.84 639.527C4263.44 647.895 4286.29 652.067 4296.38 652.067C4306.49 652.067 4324 653.959 4348.98 657.767C4374.5 660.799 4398.4 662.327 4420.7 662.327C4461.09 662.327 4568.95 653.594 4744.27 636.107C4777.27 634.58 4803.73 623.18 4823.97 601.908H4823.86Z" fill="#446618"/>
<path fill-rule="evenodd" clip-rule="evenodd" d="M2158.9 1063.6L2170.85 1101.22L2176.43 1145.68C2166.87 1141.87 2148.01 1117.93 2119.85 1073.86L2106.3 1054.48L2099.93 1005.46L2123.83 1014.58C2140.89 1025.23 2152.52 1041.55 2158.9 1063.6Z" fill="#476918"/>
<path fill-rule="evenodd" clip-rule="evenodd" d="M2258.52 1039.66L2261.7 1084.12C2263.3 1111.48 2262.5 1138.45 2259.31 1165.06L2254.53 1195.84C2251.87 1192.03 2248.41 1185.58 2244.17 1176.46C2235.68 1159.74 2228.5 1140.73 2222.65 1119.46C2218.94 1104.25 2210.97 1090.96 2198.75 1079.56C2199.27 1063.6 2199.27 1045.75 2198.75 1025.98C2196.08 980.381 2192.37 948.461 2187.59 930.222L2209.9 966.701C2227.91 994.813 2244.17 1019.14 2258.52 1039.66Z" fill="#476918"/>
<path fill-rule="evenodd" clip-rule="evenodd" d="M828.815 1043.08C827.221 1077.28 828.018 1103.89 831.206 1122.88L835.987 1139.98L810.485 1116.04L829.612 1029.4L828.815 1043.08Z" fill="#476918"/>
<path fill-rule="evenodd" clip-rule="evenodd" d="M1013.71 1003.18V1013.44C1013.71 1038.52 1010.77 1068.16 1004.94 1102.36L996.173 1145.68L989.001 1104.64C984.219 1077.28 968.806 1036.63 942.778 982.66L938.794 1013.44C937.742 1025.59 931.366 1057.9 919.667 1110.34L902.932 1185.58L899.744 1129.72C897.608 1098.55 877.685 1047.25 839.974 975.82L847.146 919.961C873.716 976.96 889.655 1019.53 894.962 1047.64L902.135 1089.82L911.698 1045.36C917.531 1009.63 920.464 978.465 920.464 951.881V888.042L1013.71 1003.18Z" fill="#476918"/>
<path fill-rule="evenodd" clip-rule="evenodd" d="M1430.5 1077.28L1428.91 1082.98L1383.48 1069.3C1362.76 1063.21 1339.65 1045.36 1314.15 1015.72L1350.01 1025.98L1328.5 968.98C1332.75 975.067 1352.13 978.1 1386.67 978.1C1425.47 978.1 1449.63 976.595 1459.19 973.54L1442.46 1037.38C1424.92 1035.85 1414.84 1033.18 1412.17 1029.4L1430.5 1077.28Z" fill="#476918"/>
<path fill-rule="evenodd" clip-rule="evenodd" d="M1159.54 1129.72L1069.49 1019.14V935.922L1159.54 1020.28V1129.72Z" fill="#476918"/>
<path fill-rule="evenodd" clip-rule="evenodd" d="M1947.71 1040.8C1945.58 1054.48 1945.85 1074.25 1948.51 1100.08L1952.5 1135.42L1920.62 1104.64C1903.09 1087.93 1888.22 1052.95 1875.99 999.76C1875.99 989.113 1876.79 980.381 1878.38 973.541L1885.55 941.622L1907.87 974.681C1924.92 999.76 1938.15 1021.78 1947.71 1040.8Z" fill="#476918"/>
<path fill-rule="evenodd" clip-rule="evenodd" d="M2059.29 1025.98L2062.47 1063.6C2064.07 1087.15 2063.27 1117.18 2060.08 1153.66L2055.3 1201.54C2048.38 1177.96 2039.09 1150.62 2027.41 1119.46C2021.56 1105.03 2010.67 1084.87 1994.73 1059.04C1995.8 1040.05 1995.8 1022.17 1994.73 1005.46C1992.07 965.948 1988.36 939.341 1983.58 925.662L2001.91 945.041C2017.85 963.281 2034.84 986.833 2052.91 1015.72L2059.29 1025.98Z" fill="#476918"/>
<path fill-rule="evenodd" clip-rule="evenodd" d="M1797.89 1018V914.262C1801.08 930.974 1805.59 949.213 1811.44 968.981C1822.59 1008.49 1835.07 1034.71 1848.89 1047.64L1870.41 1069.3C1870.41 1088.29 1875.99 1114.51 1887.15 1147.96L1903.08 1191.28L1870.41 1166.2C1855.59 1154.04 1831.36 1104.64 1797.89 1018Z" fill="#476918"/>
<path fill-rule="evenodd" clip-rule="evenodd" d="M1707.04 909.702L1727.76 967.84C1744.24 1011.91 1758.84 1046.5 1771.59 1071.58C1766.81 1090.57 1758.84 1106.17 1747.68 1118.32L1731.74 1129.72L1728.55 1084.12C1726.42 1057.51 1717.4 1020.67 1701.46 973.54C1705.12 941.621 1707.04 920.349 1707.04 909.702Z" fill="#476918"/>
<path fill-rule="evenodd" clip-rule="evenodd" d="M1.59521 677.146L20.7217 727.305L10.3615 784.304L7.17377 761.504C5.03798 738.705 3.18909 710.593 1.59521 677.146Z" fill="#476918"/>
<path fill-rule="evenodd" clip-rule="evenodd" d="M66.1477 527.81L85.2742 531.229C93.2435 532.757 100.145 535.425 105.995 539.209C88.9879 536.929 75.7109 533.122 66.1477 527.81Z" fill="#476918"/>
<path fill-rule="evenodd" clip-rule="evenodd" d="M62.1631 829.903C81.8155 872.47 97.7543 902.109 109.979 918.821L121.136 982.66L85.2742 906.282C75.711 886.514 68.0126 861.07 62.1631 829.903Z" fill="#476918"/>
<path fill-rule="evenodd" clip-rule="evenodd" d="M576.985 1063.6L584.954 1036.24L597.705 1089.82L576.985 1063.6Z" fill="#476918"/>
<path fill-rule="evenodd" clip-rule="evenodd" d="M1229.67 956.441C1250.92 982.273 1271.38 999.372 1291.04 1007.74V1028.26C1291.04 1047.25 1293.97 1070.83 1299.8 1098.94L1308.57 1135.42L1214.53 1048.78C1207.61 1016.08 1204.17 989.112 1204.17 967.841V919.961L1229.67 956.441Z" fill="#476918"/>
<path fill-rule="evenodd" clip-rule="evenodd" d="M4164.79 870.943C4153.11 892.215 4137.69 912.347 4118.58 931.362C4097.85 952.634 4070.77 970.121 4037.28 983.801L3994.25 997.481L4022.14 967.841C4033.82 955.666 4049.23 930.587 4068.36 892.603C4077.92 886.515 4088.55 877.783 4100.24 866.383C4134.25 831.432 4153.63 801.405 4158.41 776.325C4162.72 804.437 4164.79 835.992 4164.79 870.943Z" fill="#476918"/>
<path fill-rule="evenodd" clip-rule="evenodd" d="M4280.35 896.022C4271.32 867.91 4261.22 842.443 4250.08 819.644C4247.94 863.715 4243.16 911.23 4235.73 962.141C4231.48 994.06 4214.76 1030.93 4185.53 1072.72L4143.31 1125.16L4168.01 1043.08C4171.2 1034.71 4174.39 1020.67 4177.57 1000.9C4202.55 960.613 4216.62 926.414 4219.81 898.302C4227.25 845.111 4232.29 795.317 4234.95 748.965C4259.98 800.652 4275.12 849.671 4280.38 896.022H4280.35Z" fill="#476918"/>
<path fill-rule="evenodd" clip-rule="evenodd" d="M4336.93 754.665L4348.08 797.984C4359.77 831.431 4375.45 858.015 4395.1 877.783L4438.14 921.102L4452.47 987.22L4406.26 941.621C4387.13 922.629 4371.99 897.55 4360.82 866.383L4349.68 825.344C4349.68 842.056 4348.61 872.447 4346.49 916.542C4344.88 943.901 4336.13 975.045 4320.19 1010.02L4296.28 1053.34V982.66L4295.49 970.121C4318.87 924.522 4331.35 884.622 4332.94 850.423C4335.65 804.072 4336.93 772.152 4336.93 754.665Z" fill="#476918"/>
<path fill-rule="evenodd" clip-rule="evenodd" d="M4887.61 698.807C4890.26 720.854 4890.53 745.158 4888.41 771.765L4883.63 804.824V763.785C4883.63 736.426 4876.45 704.119 4862.09 666.887L4858.11 870.943V834.464C4858.11 810.889 4849.87 783.917 4833.4 753.525C4826.49 801.404 4816.94 826.872 4804.71 829.904C4797.27 832.184 4789.3 826.872 4780.81 813.944L4769.65 794.565C4764.87 804.437 4759.29 813.557 4752.91 821.924C4740.69 837.884 4730.85 840.551 4723.41 829.904L4684.38 774.045C4679.05 766.453 4670.29 769.098 4658.08 782.025C4641.09 800.265 4622.49 809.384 4602.29 809.384C4578.91 809.384 4561.12 816.224 4548.9 829.904L4538.54 850.423L4509.85 891.463L4498.69 885.763C4494.43 884.235 4483.28 865.996 4465.22 831.044L4438.92 778.605C4436.26 815.837 4433.88 843.196 4431.75 860.683C4430.7 864.491 4430.7 869.803 4431.75 876.643C4422.73 831.044 4419 802.932 4420.59 792.285C4422.73 774.045 4425.12 745.546 4427.76 706.786L4454.86 761.505C4473.46 797.985 4485.14 816.999 4489.92 818.504L4500.27 824.204L4529.77 780.885L4540.93 760.365C4552.61 745.933 4570.67 738.706 4595.1 738.706C4615.82 738.706 4634.95 729.198 4652.5 710.206C4664.72 696.527 4673.47 693.494 4678.78 701.087L4719.43 760.365C4726.87 770.99 4736.97 767.958 4749.71 751.246C4756.09 742.878 4761.66 733.371 4766.45 722.746L4777.6 743.266C4787.17 756.945 4795.68 762.645 4803.1 760.365C4815.33 756.558 4824.89 729.974 4831.81 680.567C4848.8 712.486 4857.31 740.598 4857.31 764.925V802.544L4861.3 605.329C4867.13 618.256 4873.52 636.86 4880.42 661.187L4882.8 690.827V733.006L4887.58 698.807H4887.61Z" fill="#476918"/>
<path fill-rule="evenodd" clip-rule="evenodd" d="M4077.92 764.925C4063.6 797.62 4048.98 827.624 4034.09 854.983C4006.47 861.823 3982.56 865.243 3962.37 865.243C3933.15 865.243 3909.52 867.523 3891.46 872.083C3882.42 860.683 3874.18 848.144 3866.74 834.464L3852.41 808.244L3873.92 802.545C3893.58 798.737 3915.64 796.845 3940.07 796.845C3978.8 796.845 4024.86 786.197 4077.94 764.925H4077.92Z" fill="#476918"/>
<path fill-rule="evenodd" clip-rule="evenodd" d="M2664.95 1073.86V1087.54C2654.32 1118.68 2632.03 1156.32 2598.01 1200.4L2550.2 1257.39L2564.54 1216.36C2571.44 1197.36 2577.02 1155.55 2581.28 1090.96C2596.69 1066.63 2607.56 1043.47 2613.95 1021.42C2628.3 968.228 2641.57 923.769 2653.8 888.042C2661.29 969.368 2664.95 1031.29 2664.95 1073.86Z" fill="#476918"/>
<path fill-rule="evenodd" clip-rule="evenodd" d="M2868.97 1108.06C2868.97 1063.96 2870.02 1029.76 2872.16 1005.46C2874.8 976.573 2880.92 944.653 2890.47 909.702L2901.63 937.061C2911.21 959.085 2921.28 978.465 2931.91 995.2C2925.54 1024.09 2921.55 1046.89 2919.96 1063.6C2918.35 1081.09 2917.3 1103.5 2916.77 1130.86L2915.97 1166.2L2876.92 1119.46L2868.95 1108.06H2868.97Z" fill="#476918"/>
<path fill-rule="evenodd" clip-rule="evenodd" d="M2737.48 1031.68C2757.13 978.488 2768.03 934.029 2770.15 898.302C2772.29 911.229 2775.48 926.049 2779.73 942.761C2787.7 976.96 2796.99 1005.46 2807.62 1028.26C2801.25 1053.34 2794.86 1073.86 2788.5 1089.82C2776.81 1121.74 2761.4 1151.76 2742.27 1179.88L2717.57 1211.8L2715.98 1081.84C2725.54 1062.07 2732.71 1045.36 2737.49 1031.68H2737.48Z" fill="#476918"/>
<path fill-rule="evenodd" clip-rule="evenodd" d="M2457.75 1170.76L2468.11 1139.98C2475.56 1119.46 2485.12 1089.07 2496.82 1048.78C2481.4 1058.65 2466.26 1065.88 2451.38 1070.44C2460.4 1062.07 2470.77 1051.06 2482.46 1037.38C2502.11 1012.3 2518.05 987.22 2530.27 962.14C2527.09 1024.45 2522.83 1076.53 2517.52 1118.32C2505.84 1130.49 2492.28 1142.64 2476.88 1154.8L2457.75 1170.76Z" fill="#476918"/>
<path fill-rule="evenodd" clip-rule="evenodd" d="M3430.01 845.863C3432.66 886.902 3433.2 925.662 3431.61 962.141L3386.18 1023.7C3363.87 1051.06 3336.23 1069.3 3303.3 1078.42L3261.06 1084.12L3324.82 988.36C3334.92 979.241 3343.15 970.486 3349.54 962.141C3386.2 916.542 3412.98 877.783 3430.03 845.863H3430.01Z" fill="#476918"/>
<path fill-rule="evenodd" clip-rule="evenodd" d="M3741.61 1023.7C3728.34 1015.33 3710.26 989.112 3687.42 945.041L3656.36 881.202L3645.2 962.14C3640.95 995.564 3630.86 1027.12 3614.92 1056.76L3591.81 1089.82L3586.23 994.06C3601.64 962.893 3611.46 930.973 3615.71 898.302L3626.08 813.943L3657.95 880.062C3681.33 926.413 3699.94 953.773 3713.74 962.14L3746.41 983.8L3743.22 962.14C3740.58 941.621 3739.24 916.929 3739.24 888.042V818.503L3765.54 850.423C3787.31 871.717 3808.84 882.342 3830.09 882.342H3880.3L3890.64 900.582C3900.22 918.069 3911.11 933.641 3923.33 947.321H3855.59C3834.86 947.321 3813.61 937.061 3791.84 916.541L3766.32 885.762V951.88C3766.32 979.24 3767.66 1002.79 3770.3 1022.56L3773.49 1043.08L3741.61 1023.7Z" fill="#476918"/>
<path fill-rule="evenodd" clip-rule="evenodd" d="M3528.04 802.543C3537.62 835.968 3545.32 870.942 3551.15 907.421C3538.4 953.02 3527.24 989.887 3517.68 1018C3507.05 1047.64 3492.72 1074.61 3474.64 1098.94L3449.94 1125.16L3460.28 1073.86C3463.47 1057.9 3465.61 1033.18 3466.66 999.759C3470.91 991.392 3476.76 977.347 3484.19 957.58C3501.25 907.421 3515.75 855.735 3528.02 802.543H3528.04Z" fill="#476918"/>
<path fill-rule="evenodd" clip-rule="evenodd" d="M2336.62 998.62C2355.22 1012.3 2369.82 1018 2380.45 1015.72C2397.44 1011.91 2416.84 1003.18 2438.63 989.5C2430.13 1019.89 2422.16 1046.5 2414.72 1069.3C2406.22 1064.74 2396.66 1058.29 2386.03 1049.92L2372.48 1038.52L2400.37 1181.02L2361.32 1145.68L2339.01 1120.6L2311.91 978.1L2336.62 998.62Z" fill="#476918"/>
<path fill-rule="evenodd" clip-rule="evenodd" d="M3006.84 962.14C3002.05 930.221 2999.67 905.529 2999.67 888.042L3052.27 940.481C3090.52 975.433 3117.87 995.2 3134.35 999.76L3175 1010.02L3162.25 972.4C3153.73 945.041 3149.48 925.661 3149.48 914.261V888.042L3165.42 916.541C3182.42 932.501 3206.08 933.641 3236.34 919.961L3309.68 888.042C3282.58 933.641 3261.59 967.84 3246.72 990.64C3227.59 992.92 3212.45 987.22 3201.28 973.54L3190.14 951.881V976.96C3190.14 987.585 3194.39 1006.21 3202.89 1032.82L3214.84 1069.3L3175.79 1059.04C3159.33 1054.48 3132.49 1035.46 3095.3 1002.04L3044.3 951.881C3044.3 968.593 3046.69 992.532 3051.47 1023.7C3054.66 1042.69 3062.63 1066.27 3075.38 1094.38C3082.3 1108.06 3088.66 1119.84 3094.51 1129.72C3058.91 1126.68 3028.09 1111.48 3002.05 1084.12C2991.43 1073.49 2980 1057.9 2967.79 1037.38C2993.3 1058.65 3020.92 1070.83 3050.67 1073.86C3044.82 1063.21 3038.45 1050.67 3031.55 1036.24C3018.32 1006.6 3010.03 981.885 3006.84 962.14Z" fill="#476918"/>
<path fill-rule="evenodd" clip-rule="evenodd" d="M3449.94 1125.16L3463.49 1055.62C3471.46 1057.9 3481.56 1062.09 3493.77 1068.16C3484.75 1084.12 3474.64 1098.16 3463.49 1110.34L3449.94 1125.16Z" fill="#476918"/>
<path fill-rule="evenodd" clip-rule="evenodd" d="M3280.99 1056.76L3363.07 1046.5C3342.88 1063.99 3319.77 1075.39 3293.74 1080.7L3261.05 1084.12L3280.97 1056.76H3280.99Z" fill="#476918"/>
<path fill-rule="evenodd" clip-rule="evenodd" d="M3620.48 1045.36C3614.63 1057.51 3607.99 1068.55 3600.56 1078.42L3591.78 1089.82L3590.98 1061.32L3620.47 1045.36H3620.48Z" fill="#476918"/>
<path fill-rule="evenodd" clip-rule="evenodd" d="M3706.55 979.239C3723.02 963.28 3742.94 941.62 3766.32 914.261V951.88C3766.32 979.239 3767.66 1002.79 3770.31 1022.56L3773.49 1043.08L3741.62 1023.7C3731.57 1016.86 3719.78 1002.04 3706.55 979.239Z" fill="#476918"/>
<path fill-rule="evenodd" clip-rule="evenodd" d="M3031.55 797.984C3038.46 792.672 3050.94 781.272 3069 763.785C3080.16 754.665 3092.38 750.105 3105.66 750.105C3115.24 750.105 3127.72 752.772 3143.13 758.085C3160.67 783.164 3194.14 843.195 3243.55 938.201C3252.04 954.913 3255.77 972.013 3254.7 989.5C3232.92 994.06 3215.65 989.112 3202.9 974.68L3190.15 951.881V976.96C3190.15 987.585 3194.41 1006.21 3202.9 1032.82L3214.86 1069.3L3175.81 1059.04C3159.34 1054.48 3132.5 1035.46 3095.32 1002.04L3044.31 951.881C3044.31 968.593 3046.7 992.532 3051.49 1023.7C3054.67 1042.69 3062.64 1066.27 3075.39 1094.38C3082.31 1108.06 3088.67 1119.84 3094.52 1129.72C3058.93 1126.68 3028.1 1111.48 3002.06 1084.12C2987.19 1068.91 2973.64 1049.17 2961.42 1024.84C2978.95 973.153 3002.38 897.549 3031.55 797.984Z" fill="#476918"/>
<path fill-rule="evenodd" clip-rule="evenodd" d="M2915.99 1166.2L2906.43 1154.8L2916.79 1135.42L2915.99 1166.2Z" fill="#476918"/>
<path fill-rule="evenodd" clip-rule="evenodd" d="M4843.78 569.988C4860.77 597.348 4874.05 631.547 4883.63 672.586C4889.46 697.666 4891.06 727.305 4888.41 761.504L4883.63 804.823V763.784C4883.63 736.425 4876.46 704.118 4862.09 666.886L4858.11 870.942V834.463C4858.11 810.888 4849.87 783.916 4833.4 753.524C4826.49 801.403 4816.94 826.871 4804.71 829.903C4797.27 832.183 4789.3 826.871 4780.81 813.943L4769.65 794.564C4764.87 804.436 4759.29 813.556 4752.91 821.923C4740.69 837.883 4730.85 840.55 4723.41 829.903L4684.38 774.044C4679.05 766.452 4670.29 769.096 4658.08 782.024C4641.09 800.263 4622.49 809.383 4602.29 809.383C4578.91 809.383 4561.12 816.223 4548.9 829.903L4538.54 850.422L4509.85 891.462L4498.69 885.762C4494.44 884.234 4483.28 865.995 4465.22 831.043L4438.92 778.604C4436.26 815.836 4433.88 843.195 4431.75 860.682C4430.15 871.33 4433.09 895.634 4440.51 933.641L4452.47 987.22L4406.26 941.62C4387.14 922.628 4371.99 897.549 4360.82 866.382L4349.68 825.343C4349.68 842.055 4348.61 872.447 4346.49 916.541C4344.88 943.9 4336.13 975.045 4320.19 1010.02L4296.29 1053.34V982.66C4296.29 953.02 4288.59 916.929 4273.17 874.362L4250.08 819.643C4247.94 863.715 4243.16 911.229 4235.73 962.14C4231.48 994.059 4214.76 1030.93 4185.53 1072.72L4143.31 1125.16L4168.01 1043.08C4178.64 1009.63 4183.15 966.312 4181.56 913.121C4180.51 887.289 4178.39 864.49 4175.2 844.723C4170.42 869.05 4151.56 897.914 4118.62 931.361C4097.88 952.633 4070.8 970.12 4037.31 983.8L3994.28 997.479L4022.17 967.84C4041.3 947.32 4066.27 902.861 4097.08 834.463C4045.01 854.982 4000.13 865.242 3962.4 865.242C3938.49 865.242 3916.98 867.134 3897.85 870.942L3876.33 875.502L3890.66 900.581C3900.24 918.069 3911.13 933.641 3923.35 947.32H3855.61C3829.57 947.32 3803.54 931.748 3777.51 900.581C3796.11 877.782 3821.07 847.003 3852.42 808.243L3912.99 739.845C3904.5 736.79 3897.58 731.477 3892.27 723.885C3908.21 721.605 3922.01 717.798 3933.71 712.485C3950.18 706.398 3984.19 689.686 4035.72 662.326C4084.59 638.022 4120.45 625.847 4143.31 625.847C4164.03 625.847 4192.17 630.407 4227.78 639.527C4263.37 647.894 4286.23 652.067 4296.32 652.067C4306.42 652.067 4323.94 653.959 4348.91 657.766C4374.43 660.799 4398.34 662.326 4420.64 662.326C4461.03 662.326 4568.89 653.594 4744.21 636.107C4777.14 634.602 4803.71 623.202 4823.91 601.908C4833.95 591.26 4840.64 580.636 4843.83 569.988H4843.78Z" fill="#476918"/>
</g>
<defs>
<clipPath id="clip0">
<rect width="4890" height="2883" fill="white"/>
</clipPath>
</defs>
</svg>
