<svg width="313" height="48" viewBox="0 0 313 48" fill="none" xmlns="http://www.w3.org/2000/svg">
<rect x="1.98052" width="38.2338" height="37.0708" transform="matrix(0.801384 -0.598151 0.801384 0.598151 21.49 25.5325)" stroke="black" stroke-width="2.47137"/>
<rect x="4.00692" width="35.7052" height="34.5422" transform="matrix(0.801384 -0.598151 0.801384 0.598151 21.8925 26.7446)" stroke="#494FE9" stroke-width="5"/>
<rect x="4.00692" width="25.221" height="24.4671" transform="matrix(0.801384 -0.598151 0.801384 0.598151 58.7984 26.6222)" stroke="#CEBD1E" stroke-width="5"/>
<rect x="4.00692" width="25.221" height="24.4671" transform="matrix(0.801384 -0.598151 0.801384 0.598151 1.46253 26.6222)" stroke="#CEBD1E" stroke-width="5"/>
<path d="M111.091 15.6241L110.943 25.8062C110.943 27.0748 110.967 28.014 111.017 28.6236C111.281 28.6895 111.701 28.7224 112.277 28.7224C112.87 28.7224 113.373 28.673 113.785 28.5741C114.213 28.4753 114.567 28.3023 114.848 28.0551C115.144 27.7915 115.383 27.5526 115.564 27.3384C115.745 27.1078 115.902 26.77 116.034 26.3252C116.231 25.7321 116.429 24.9495 116.627 23.9774C116.627 23.9609 116.742 23.9527 116.973 23.9527C117.22 23.9527 117.599 24.068 118.11 24.2987C118.637 24.5128 118.901 24.6776 118.901 24.7929C118.901 26.0616 118.835 27.495 118.703 29.0931C118.571 30.8725 118.406 31.7622 118.209 31.7622C118.027 31.7622 117.665 31.6881 117.121 31.5398C116.577 31.408 116.166 31.2844 115.885 31.1691C114.403 31.4162 112.483 31.548 110.127 31.5645L108.892 31.5892L107.903 31.4656C107.837 31.3997 107.804 30.6748 107.804 29.2908L107.903 19.8255C107.903 17.8978 107.854 16.8763 107.755 16.761C107.672 16.6292 107.524 16.3161 107.31 15.8218C107.096 15.3111 106.989 14.9816 106.989 14.8333C106.989 14.7674 107.17 14.6768 107.532 14.5614C108.438 14.2319 109.238 14.0672 109.929 14.0672C110.621 14.0672 110.984 14.0919 111.017 14.1413C111.066 14.1907 111.091 14.685 111.091 15.6241ZM129.574 25.5591C129.574 27.6185 129.599 28.8213 129.648 29.1673C129.78 30.0734 130.06 30.7242 130.488 31.1196C130.488 31.3009 130.159 31.5727 129.5 31.9352C128.857 32.2977 128.272 32.4789 127.745 32.4789C127.597 32.4789 127.44 32.2565 127.275 31.8116C127.111 31.3833 127.012 31.062 126.979 30.8478C126.962 30.6336 126.946 30.5265 126.929 30.5265L126.855 30.5759C125.982 31.2679 124.961 31.6139 123.791 31.6139C122.621 31.6139 121.715 31.3338 121.072 30.7737C120.446 30.197 120.133 29.4474 120.133 28.5247C120.133 27.6021 120.331 26.8277 120.726 26.2016C121.138 25.5591 121.616 25.073 122.16 24.7435C122.703 24.414 123.305 24.1504 123.964 23.9527C124.969 23.6231 125.76 23.4584 126.336 23.4584L126.386 23.4337C126.386 22.6264 125.364 22.2227 123.321 22.2227C122.514 22.2227 121.913 22.2557 121.517 22.3216H121.492C121.492 21.992 121.591 21.5801 121.789 21.0859C122.003 20.5916 122.176 20.2703 122.308 20.122C122.456 19.9738 123.049 19.8996 124.087 19.8996C125.966 19.8996 127.35 20.2621 128.239 20.987C129.129 21.6955 129.574 22.7994 129.574 24.2987V25.5591ZM126.831 27.1407V26.2016C126.831 25.8391 126.822 25.6579 126.806 25.6579C125.702 25.6579 124.746 25.9462 123.939 26.5229C123.428 26.8854 123.173 27.3384 123.173 27.8821C123.173 28.2281 123.297 28.5165 123.544 28.7471C123.791 28.9778 124.162 29.0931 124.656 29.0931C125.167 29.0931 125.653 28.9448 126.114 28.6483C126.592 28.3517 126.831 27.8492 126.831 27.1407ZM135.085 25.5096L135.109 26.424V28.3023C135.109 30.0652 135.076 30.9796 135.01 31.0455C134.796 31.2597 134.426 31.4245 133.898 31.5398C133.371 31.6551 132.935 31.7128 132.589 31.7128C132.259 31.7128 132.094 31.6881 132.094 31.6386C132.21 30.8972 132.267 29.678 132.267 27.981L132.193 22.4204C132.193 21.3989 132.234 20.847 132.317 20.7646C132.498 20.5834 132.811 20.4268 133.256 20.295C133.701 20.1467 134.113 20.0726 134.491 20.0726C134.887 20.0726 135.085 20.1138 135.085 20.1962C135.035 20.5916 135.01 20.987 135.01 21.3824C135.01 21.7779 135.035 21.9756 135.085 21.9756L135.159 21.9261C135.241 21.8108 135.365 21.6708 135.529 21.506C135.694 21.3248 136.04 21.0941 136.567 20.814C137.111 20.5175 137.622 20.3692 138.1 20.3692C138.594 20.3692 139.006 20.4598 139.335 20.641C139.681 20.8058 139.961 21.0117 140.176 21.2589C140.39 21.506 140.571 21.8602 140.719 22.3216C140.884 22.7829 141.008 23.2113 141.09 23.6067C141.172 24.0021 141.238 24.5293 141.288 25.1884C141.337 26.0945 141.362 27.2478 141.362 28.6483L141.288 31.5398C141.288 31.6551 141.016 31.7622 140.472 31.8611C139.928 31.9764 139.492 32.0341 139.162 32.0341L138.347 31.9105C138.512 30.4277 138.594 28.9943 138.594 27.6103C138.594 26.2099 138.503 25.1636 138.322 24.4717C138.141 23.7632 137.778 23.409 137.235 23.409C136.691 23.409 136.246 23.5572 135.9 23.8538C135.571 24.1504 135.356 24.4469 135.258 24.7435L135.085 25.1636V25.5096ZM143.78 26.2758L143.706 17.7001C143.706 16.1019 143.747 15.2617 143.829 15.1793C144.027 14.9816 144.348 14.7921 144.793 14.6109C145.238 14.4296 145.666 14.339 146.078 14.339C146.49 14.339 146.696 14.372 146.696 14.4379C146.68 14.5203 146.639 15.6736 146.573 17.8978C146.523 20.122 146.498 21.5637 146.498 22.2227C146.498 22.8653 146.507 23.236 146.523 23.3348C146.54 23.4172 146.573 23.4584 146.622 23.4584L146.671 23.4337C147.199 22.8735 147.981 22.1733 149.019 21.333C150.057 20.4927 150.725 20.0726 151.021 20.0726C151.993 20.6822 152.479 21.1765 152.479 21.5554C151.985 21.8685 151.4 22.2968 150.725 22.8405C150.049 23.3842 149.678 23.7302 149.612 23.8785C149.612 24.0103 149.752 24.4881 150.033 25.3119C150.329 26.1192 150.757 27.0748 151.318 28.1787C151.878 29.2826 152.438 30.1146 152.998 30.6748C152.998 30.8725 152.636 31.1196 151.911 31.4162C151.186 31.7128 150.56 31.8611 150.033 31.8611C149.835 31.8611 149.448 31.0867 148.871 29.538C148.311 27.9892 147.924 26.7865 147.709 25.9298L147.66 25.8556C147.594 25.8556 147.388 26.0945 147.042 26.5723C146.696 27.0501 146.523 27.3714 146.523 27.5362L146.597 30.057C146.597 30.6501 146.564 30.9796 146.498 31.0455C146.284 31.2597 145.914 31.4245 145.386 31.5398C144.859 31.6551 144.423 31.7128 144.077 31.7128C143.747 31.7128 143.582 31.6881 143.582 31.6386C143.714 30.9137 143.78 29.1261 143.78 26.2758ZM162.807 25.5591C162.807 27.6185 162.832 28.8213 162.881 29.1673C163.013 30.0734 163.293 30.7242 163.721 31.1196C163.721 31.3009 163.392 31.5727 162.733 31.9352C162.09 32.2977 161.505 32.4789 160.978 32.4789C160.83 32.4789 160.673 32.2565 160.509 31.8116C160.344 31.3833 160.245 31.062 160.212 30.8478C160.196 30.6336 160.179 30.5265 160.163 30.5265L160.089 30.5759C159.215 31.2679 158.194 31.6139 157.024 31.6139C155.854 31.6139 154.948 31.3338 154.306 30.7737C153.679 30.197 153.366 29.4474 153.366 28.5247C153.366 27.6021 153.564 26.8277 153.96 26.2016C154.371 25.5591 154.849 25.073 155.393 24.7435C155.937 24.414 156.538 24.1504 157.197 23.9527C158.202 23.6231 158.993 23.4584 159.57 23.4584L159.619 23.4337C159.619 22.6264 158.597 22.2227 156.554 22.2227C155.747 22.2227 155.146 22.2557 154.75 22.3216H154.726C154.726 21.992 154.825 21.5801 155.022 21.0859C155.236 20.5916 155.409 20.2703 155.541 20.122C155.689 19.9738 156.283 19.8996 157.321 19.8996C159.199 19.8996 160.583 20.2621 161.473 20.987C162.362 21.6955 162.807 22.7994 162.807 24.2987V25.5591ZM160.064 27.1407V26.2016C160.064 25.8391 160.056 25.6579 160.039 25.6579C158.935 25.6579 157.98 25.9462 157.172 26.5229C156.662 26.8854 156.406 27.3384 156.406 27.8821C156.406 28.2281 156.53 28.5165 156.777 28.7471C157.024 28.9778 157.395 29.0931 157.889 29.0931C158.4 29.0931 158.886 28.9448 159.347 28.6483C159.825 28.3517 160.064 27.8492 160.064 27.1407ZM169.01 22.6923C172.7 22.3627 174.546 21.1847 174.546 19.1582C174.546 18.4992 174.2 17.9884 173.508 17.6259C172.832 17.247 171.967 17.0575 170.913 17.0575L169.133 17.2058C169.051 17.7989 169.01 19.6278 169.01 22.6923ZM169.257 31.2185C169.076 31.3997 168.713 31.5398 168.17 31.6386C167.642 31.754 167.189 31.8116 166.81 31.8116C166.431 31.8116 166.127 31.7622 165.896 31.6634L166.044 17.4035C165.813 17.1399 165.591 16.7033 165.377 16.0937C165.179 15.4841 165.08 15.1134 165.08 14.9816C165.08 14.8333 165.097 14.7427 165.13 14.7097C165.179 14.6603 165.706 14.6109 166.711 14.5614C167.733 14.4955 168.754 14.4626 169.776 14.4626C170.814 14.4626 171.737 14.5203 172.544 14.6356C173.351 14.7509 174.175 14.9651 175.015 15.2781C175.872 15.5747 176.548 16.0443 177.042 16.6868C177.553 17.3129 177.808 18.1202 177.808 19.1088C177.808 20.0973 177.503 21.0035 176.893 21.8273C176.3 22.6511 175.575 23.2772 174.719 23.7055C172.939 24.6117 171.341 25.1554 169.924 25.3366L169.01 25.4355C169.076 28.7966 169.158 30.7242 169.257 31.2185ZM179.592 27.7339L179.543 22.1238C179.543 21.1518 179.576 20.6328 179.642 20.5669C179.823 20.3856 180.136 20.2291 180.581 20.0973C181.026 19.949 181.437 19.8749 181.816 19.8749C182.212 19.8749 182.409 19.9161 182.409 19.9985C182.36 20.4433 182.335 20.9541 182.335 21.5307C182.335 22.0909 182.352 22.371 182.385 22.371C182.418 22.371 182.451 22.3545 182.484 22.3216C182.517 22.2721 182.566 22.2062 182.632 22.1238C182.714 22.025 182.871 21.8602 183.101 21.6296C183.349 21.3989 183.612 21.2012 183.892 21.0364C184.601 20.5751 185.359 20.3445 186.166 20.3445C186.298 20.5586 186.364 20.8882 186.364 21.333C186.364 22.2721 186.248 22.9394 186.018 23.3348L185.919 23.5325L185.598 23.4831C184.411 23.4831 183.48 23.9691 182.805 24.9412C182.541 25.3366 182.409 25.6332 182.409 25.8309V28.0057C182.409 29.9828 182.385 30.9961 182.335 31.0455C181.874 31.4904 180.968 31.7128 179.617 31.7128C179.485 31.7128 179.419 31.6881 179.419 31.6386C179.534 30.9961 179.592 29.6945 179.592 27.7339ZM197.588 25.9298C197.588 27.495 197.11 28.8542 196.155 30.0075C195.215 31.1444 193.93 31.7128 192.299 31.7128C190.685 31.7128 189.416 31.2103 188.493 30.2052C187.571 29.2002 187.109 27.8986 187.109 26.3005C187.109 24.6858 187.678 23.2607 188.815 22.025C189.968 20.7728 191.517 20.1467 193.461 20.1467C194.252 20.1797 194.68 20.2291 194.746 20.295C194.812 20.3609 194.845 20.5175 194.845 20.7646C194.845 21.0117 194.82 21.2836 194.771 21.5801C195.018 21.5801 195.331 21.7284 195.71 22.025C196.105 22.3051 196.426 22.5934 196.674 22.89C196.921 23.1865 197.135 23.6067 197.316 24.1504C197.497 24.6776 197.588 25.2707 197.588 25.9298ZM193.98 24.1998C193.601 23.9527 193.23 23.8291 192.868 23.8291H192.67C192.637 23.7632 192.621 23.6231 192.621 23.409C192.621 23.1948 192.645 22.9888 192.695 22.7911C192.019 22.7911 191.385 23.0959 190.792 23.7055C190.215 24.3151 189.927 25.1636 189.927 26.251C189.927 27.5362 190.339 28.4259 191.162 28.9201C191.475 29.1178 191.904 29.2167 192.448 29.2167C193.008 29.2167 193.527 28.9613 194.004 28.4506C194.499 27.9398 194.746 27.1819 194.746 26.1769C194.746 25.1719 194.491 24.5128 193.98 24.1998ZM202.367 19.0841L202.342 20.2456C206.725 20.2456 208.916 21.9426 208.916 25.3366C208.916 26.2593 208.727 27.0995 208.348 27.8574C207.985 28.5988 207.532 29.192 206.988 29.6368C206.445 30.0652 205.852 30.4277 205.209 30.7242C204.105 31.235 203.117 31.4904 202.243 31.4904V31.8611C202.243 34.3324 202.309 35.98 202.441 36.8038C202.227 37.018 201.856 37.1828 201.329 37.2981C200.802 37.4299 200.373 37.4958 200.044 37.4958C199.714 37.4958 199.55 37.4711 199.55 37.4217C199.484 36.8944 199.451 35.807 199.451 34.1594L199.574 22.6675C199.574 21.3165 199.55 20.3774 199.5 19.8502C199.698 19.6525 200.027 19.463 200.489 19.2818C200.967 19.1005 201.378 19.0099 201.724 19.0099C202.07 19.0099 202.285 19.0346 202.367 19.0841ZM202.243 27.5114L202.268 28.7471C203.273 28.7471 204.155 28.4588 204.913 27.8821C205.67 27.3055 206.049 26.4735 206.049 25.3861C206.049 23.6067 204.805 22.717 202.318 22.717L202.293 23.0383C202.293 23.2524 202.293 23.5325 202.293 23.8785L202.243 27.5114ZM216.602 23.2113C216.602 22.7335 216.347 22.4946 215.836 22.4946C215.161 22.4946 214.568 22.8405 214.057 23.5325C213.546 24.2245 213.291 25.0565 213.291 26.0286C213.291 26.2593 213.324 26.3746 213.39 26.3746C213.983 26.3581 214.666 26.0204 215.441 25.3613C216.215 24.6858 216.602 23.9691 216.602 23.2113ZM218.752 31.0702C218.192 31.4492 217.097 31.6386 215.465 31.6386C213.834 31.6386 212.582 31.1526 211.709 30.1805C210.836 29.2085 210.399 27.9151 210.399 26.3005C210.399 24.6694 210.918 23.2607 211.956 22.0744C213.011 20.8717 214.485 20.2703 216.38 20.2703C217.154 20.2703 217.863 20.4763 218.505 20.8882C219.164 21.3001 219.494 22.025 219.494 23.063C219.494 24.0845 219.041 25.0977 218.135 26.1028C217.245 27.1078 216.026 27.8739 214.477 28.4011C214.477 28.5988 214.675 28.7636 215.07 28.8954C215.482 29.0107 215.886 29.0684 216.281 29.0684C217.533 29.0684 218.522 28.846 219.247 28.4011C219.263 28.3847 219.288 28.3764 219.321 28.3764C219.354 28.3764 219.37 28.5329 219.37 28.846C219.37 29.8016 219.164 30.543 218.752 31.0702ZM221.393 27.7339L221.344 22.1238C221.344 21.1518 221.377 20.6328 221.443 20.5669C221.624 20.3856 221.937 20.2291 222.382 20.0973C222.826 19.949 223.238 19.8749 223.617 19.8749C224.013 19.8749 224.21 19.9161 224.21 19.9985C224.161 20.4433 224.136 20.9541 224.136 21.5307C224.136 22.0909 224.153 22.371 224.186 22.371C224.219 22.371 224.252 22.3545 224.285 22.3216C224.318 22.2721 224.367 22.2062 224.433 22.1238C224.515 22.025 224.672 21.8602 224.902 21.6296C225.15 21.3989 225.413 21.2012 225.693 21.0364C226.402 20.5751 227.16 20.3445 227.967 20.3445C228.099 20.5586 228.165 20.8882 228.165 21.333C228.165 22.2721 228.049 22.9394 227.819 23.3348L227.72 23.5325L227.399 23.4831C226.212 23.4831 225.281 23.9691 224.606 24.9412C224.342 25.3366 224.21 25.6332 224.21 25.8309V28.0057C224.21 29.9828 224.186 30.9961 224.136 31.0455C223.675 31.4904 222.769 31.7128 221.418 31.7128C221.286 31.7128 221.22 31.6881 221.22 31.6386C221.335 30.9961 221.393 29.6945 221.393 27.7339ZM232.543 14.8827C232.51 15.2617 232.469 16.2996 232.42 17.9967C233.655 17.9967 234.273 18.0214 234.273 18.0708C234.273 18.631 234.191 19.1335 234.026 19.5783C233.861 20.0067 233.705 20.2209 233.557 20.2209H232.395C232.362 22.6593 232.346 24.6446 232.346 26.1769C232.346 27.6927 232.37 28.7059 232.42 29.2167C232.519 30.0734 232.856 30.7737 233.433 31.3174C233.433 31.4986 233.112 31.7622 232.469 32.1082C231.843 32.4542 231.25 32.6272 230.69 32.6272C230.64 32.6272 230.541 32.5448 230.393 32.38C230.261 32.2153 230.113 31.9434 229.948 31.5645C229.8 31.1856 229.701 30.8148 229.652 30.4524C229.619 30.0899 229.602 28.7966 229.602 26.5723C229.602 24.3481 229.627 22.2474 229.676 20.2703L228.292 20.295C228.21 20.2127 228.169 19.8584 228.169 19.2323C228.169 18.5898 228.243 18.2026 228.391 18.0708C228.754 18.0543 229.19 18.0378 229.701 18.0214C229.701 17.0658 229.676 16.4479 229.627 16.1678C229.578 15.8877 229.553 15.723 229.553 15.6736C229.553 15.5088 229.833 15.3193 230.393 15.1051C230.97 14.891 231.472 14.7839 231.901 14.7839C232.329 14.7839 232.543 14.8168 232.543 14.8827ZM236.662 16.3161C237.123 16.3161 237.494 16.4644 237.774 16.761C238.054 17.0575 238.194 17.4447 238.194 17.9225C238.194 18.4003 238.005 18.8122 237.626 19.1582C237.263 19.4877 236.851 19.6525 236.39 19.6525C235.945 19.6525 235.583 19.5124 235.303 19.2323C235.039 18.9358 234.907 18.5486 234.907 18.0708C234.907 17.593 235.088 17.1811 235.451 16.8351C235.813 16.4891 236.217 16.3161 236.662 16.3161ZM237.922 22.4698L237.873 26.4735C237.873 27.7586 237.906 28.7059 237.972 29.3155C238.054 29.9087 238.268 30.4689 238.614 30.9961C238.614 31.1608 238.277 31.4245 237.601 31.7869C236.926 32.1494 236.349 32.3306 235.871 32.3306C235.723 32.3306 235.575 32.0835 235.426 31.5892C235.278 31.0949 235.179 30.6254 235.13 30.1805C235.097 29.7357 235.08 28.2364 235.08 25.6826C235.08 23.1289 235.138 21.7367 235.253 21.506C235.632 21.2094 236.299 21.0612 237.255 21.0612C237.634 21.0612 237.865 21.1106 237.947 21.2094L237.922 22.4698ZM246.046 23.2113C246.046 22.7335 245.791 22.4946 245.28 22.4946C244.605 22.4946 244.012 22.8405 243.501 23.5325C242.99 24.2245 242.735 25.0565 242.735 26.0286C242.735 26.2593 242.768 26.3746 242.834 26.3746C243.427 26.3581 244.11 26.0204 244.885 25.3613C245.659 24.6858 246.046 23.9691 246.046 23.2113ZM248.196 31.0702C247.636 31.4492 246.541 31.6386 244.91 31.6386C243.278 31.6386 242.026 31.1526 241.153 30.1805C240.28 29.2085 239.843 27.9151 239.843 26.3005C239.843 24.6694 240.362 23.2607 241.4 22.0744C242.455 20.8717 243.929 20.2703 245.824 20.2703C246.598 20.2703 247.307 20.4763 247.949 20.8882C248.608 21.3001 248.938 22.025 248.938 23.063C248.938 24.0845 248.485 25.0977 247.579 26.1028C246.689 27.1078 245.47 27.8739 243.921 28.4011C243.921 28.5988 244.119 28.7636 244.514 28.8954C244.926 29.0107 245.33 29.0684 245.725 29.0684C246.977 29.0684 247.966 28.846 248.691 28.4011C248.707 28.3847 248.732 28.3764 248.765 28.3764C248.798 28.3764 248.814 28.5329 248.814 28.846C248.814 29.8016 248.608 30.543 248.196 31.0702ZM257.732 28.2281C257.732 29.1178 257.312 29.9169 256.472 30.6254C255.648 31.3174 254.75 31.8116 253.778 32.1082C252.823 32.4212 251.982 32.5778 251.257 32.5778C251.175 32.5778 251.06 32.4789 250.911 32.2812C250.499 31.7375 250.293 31.1032 250.293 30.3782V30.2052C251.579 30.2052 252.559 29.9828 253.234 29.538C253.91 29.0931 254.248 28.6318 254.248 28.154C254.248 27.841 254.042 27.5114 253.63 27.1654C253.218 26.8195 252.765 26.5147 252.271 26.251C251.776 25.9874 251.323 25.6414 250.911 25.2131C250.499 24.7682 250.293 24.3069 250.293 23.8291C250.293 22.8241 250.92 21.9014 252.172 21.0612C253.424 20.2209 254.758 19.8008 256.175 19.8008C256.34 19.8008 256.554 20.0314 256.818 20.4927C257.082 20.9376 257.222 21.3989 257.238 21.8767C256.909 21.8767 256.414 21.9756 255.755 22.1733C254.454 22.5852 253.803 23.0959 253.803 23.7055C253.803 24.1339 254.445 24.7188 255.731 25.4602C256.225 25.7403 256.678 26.1275 257.09 26.6217C257.502 27.116 257.716 27.6515 257.732 28.2281Z" fill="#494FE9"/>
</svg>
