<svg width="77" height="65" viewBox="0 0 77 65" fill="none" xmlns="http://www.w3.org/2000/svg">
<rect x="0.185608" y="0.780334" width="76.6881" height="63.3323" rx="12.0633" fill="#C4C4C4"/>
<g clip-path="url(#clip0)">
<path d="M37.6179 20.351C40.1188 20.351 42.1533 18.607 42.1533 16.4634C42.1533 14.3198 40.1188 12.5758 37.6179 12.5758C35.117 12.5758 33.0823 14.3198 33.0823 16.4634C33.0823 18.607 35.117 20.351 37.6179 20.351ZM37.6179 14.5196C38.8683 14.5196 39.8856 15.3916 39.8856 16.4634C39.8856 17.5352 38.8683 18.4072 37.6179 18.4072C36.3674 18.4072 35.35 17.5352 35.35 16.4634C35.35 15.3916 36.3674 14.5196 37.6179 14.5196Z" fill="#636363"/>
<path d="M52.0453 26.7529H44.4565C48 23.8537 51.2243 21.0119 51.2243 16.062C51.2243 9.39277 45.3818 4.39929 37.6179 4.39929C29.8383 4.39929 24.0112 9.4076 24.0112 16.062C24.0112 21.0119 27.2355 23.8537 30.7791 26.7529H23.1902L19.0436 37.5734H56.1919L52.0453 26.7529ZM26.2789 16.062C26.2789 10.4305 31.0477 6.34308 37.6179 6.34308C44.1879 6.34308 48.9565 10.4305 48.9565 16.062C48.9565 22.3624 42.7522 24.5939 37.6179 30.02C36.0749 28.3894 34.4247 27.0434 32.8201 25.7348C29.1655 22.7543 26.2789 20.4 26.2789 16.062ZM23.0942 33.2322H31.268V31.2884H23.8391L24.8323 28.6967H33.0822V28.653C36.0942 31.2132 36.9091 32.4964 37.6179 33.2615C38.3442 32.4774 39.1324 31.2209 42.1532 28.6532V28.6967H50.4033L51.3965 31.2884H43.9674V33.2322H52.1413L53.0599 35.6296H22.1755L23.0942 33.2322Z" fill="#636363"/>
</g>
<path d="M32.9936 46.2597V56.785H30.8825V49.9391L28.0627 56.785H26.4643L23.6294 49.9391V56.785H21.5184V46.2597H23.9159L27.2635 54.0858L30.6111 46.2597H32.9936ZM34.5379 52.5779C34.5379 51.7335 34.7038 50.9845 35.0355 50.3311C35.3773 49.6777 35.8347 49.175 36.4077 48.8232C36.9908 48.4714 37.6392 48.2954 38.3529 48.2954C38.9762 48.2954 39.519 48.4211 39.9815 48.6724C40.4539 48.9237 40.8309 49.2404 41.1124 49.6224V48.4311H43.2385V56.785H41.1124V55.5636C40.841 55.9556 40.464 56.2823 39.9815 56.5437C39.509 56.795 38.9611 56.9207 38.3378 56.9207C37.6341 56.9207 36.9908 56.7397 36.4077 56.3778C35.8347 56.0159 35.3773 55.5083 35.0355 54.8548C34.7038 54.1914 34.5379 53.4324 34.5379 52.5779ZM41.1124 52.6081C41.1124 52.0954 41.0119 51.6581 40.8108 51.2962C40.6097 50.9242 40.3383 50.6427 39.9965 50.4517C39.6547 50.2507 39.2878 50.1502 38.8958 50.1502C38.5037 50.1502 38.1418 50.2457 37.8101 50.4367C37.4783 50.6277 37.2069 50.9091 36.9958 51.2811C36.7947 51.643 36.6942 52.0753 36.6942 52.5779C36.6942 53.0805 36.7947 53.5229 36.9958 53.9049C37.2069 54.2768 37.4783 54.5633 37.8101 54.7644C38.1519 54.9654 38.5137 55.066 38.8958 55.066C39.2878 55.066 39.6547 54.9705 39.9965 54.7795C40.3383 54.5784 40.6097 54.2969 40.8108 53.935C41.0119 53.5631 41.1124 53.1207 41.1124 52.6081ZM47.4115 49.6375C47.6829 49.2555 48.0548 48.9388 48.5273 48.6875C49.0098 48.4261 49.5577 48.2954 50.1709 48.2954C50.8847 48.2954 51.5281 48.4714 52.1011 48.8232C52.6841 49.175 53.1415 49.6777 53.4733 50.3311C53.8151 50.9745 53.9859 51.7234 53.9859 52.5779C53.9859 53.4324 53.8151 54.1914 53.4733 54.8548C53.1415 55.5083 52.6841 56.0159 52.1011 56.3778C51.5281 56.7397 50.8847 56.9207 50.1709 56.9207C49.5577 56.9207 49.0149 56.795 48.5424 56.5437C48.08 56.2924 47.703 55.9757 47.4115 55.5937V60.7659H45.3004V48.4311H47.4115V49.6375ZM51.8296 52.5779C51.8296 52.0753 51.7241 51.643 51.513 51.2811C51.3119 50.9091 51.0405 50.6277 50.6987 50.4367C50.367 50.2457 50.0051 50.1502 49.613 50.1502C49.231 50.1502 48.8691 50.2507 48.5273 50.4517C48.1956 50.6427 47.9241 50.9242 47.713 51.2962C47.512 51.6681 47.4115 52.1054 47.4115 52.6081C47.4115 53.1107 47.512 53.548 47.713 53.9199C47.9241 54.2919 48.1956 54.5784 48.5273 54.7795C48.8691 54.9705 49.231 55.066 49.613 55.066C50.0051 55.066 50.367 54.9654 50.6987 54.7644C51.0405 54.5633 51.3119 54.2768 51.513 53.9049C51.7241 53.5329 51.8296 53.0906 51.8296 52.5779Z" fill="#636363"/>
<defs>
<clipPath id="clip0">
<rect width="38.7031" height="33.1741" fill="white" transform="translate(18.2662 4.39929)"/>
</clipPath>
</defs>
</svg>
